<?xml version="1.0" encoding="UTF-8"?>
<svg xmlns="http://www.w3.org/2000/svg" viewBox="0 0 619 596" width="619" height="596">
<path d="M0.25 0.25C206.42 0.25 412.58 0.25 618.75 0.25C618.75 198.75 618.75 397.25 618.75 595.75C412.58 595.75 206.42 595.75 0.25 595.75C0.25 397.25 0.25 198.75 0.25 0.25ZM530.66 77.3C503.8 82.38 512.76 125.47 539.52 119.18C565.85 112.99 557.69 72.18 530.66 77.3ZM507.5 103.66C501.9 99.13 455.35 98.23 451.34 104.5C450.59 110.41 453.8 112.56 455.92 117.5C408.39 143.96 361.12 171.19 314.11 198.59C305.38 203.68 296.08 210.55 286.72 214.27C277.74 217.84 268.54 217.92 260.22 223.68C250.95 230.1 244.08 240.04 236.5 248.21C228.42 244.42 193.15 230.44 187.21 235.5C184.73 240.65 187.32 244.43 188.49 249.5C176.35 253.17 164.2 256.83 152.06 260.5C148.87 266.71 151.64 278.13 155.86 283.5C150.07 284.82 144.29 286.15 138.5 287.47C126.1 274.82 113.71 262.16 101.31 249.5C104.28 246.5 107.25 243.5 110.21 240.5C110.1 237.92 110.02 235.46 107.88 233.64C102.55 229.12 63.88 220.55 56.5 221.1C53.69 222.94 51.82 224.92 51.69 228.5C51.41 235.74 60.27 272.09 64.5 277.29C66 278.02 67.5 278.76 69 279.5C74.59 278.7 76.39 274.93 79.5 270.72C88.44 279.65 97.38 288.57 106.32 297.5C93.41 308.1 85.26 312.87 82.97 330.73C78.92 330.73 74.87 330.73 70.82 330.73C70.82 327.32 70.82 323.91 70.82 320.5C69.38 318.65 67.94 316.79 66.5 314.94C58.43 314.22 18.95 338.7 17.97 346.5C19.78 353.64 59 377.54 66.5 376.88C67.92 375.42 69.34 373.96 70.76 372.5C70.76 368.71 70.76 364.91 70.76 361.12C74.59 361.12 78.41 361.12 82.24 361.12C84.17 377.54 95.47 384.66 103.16 397.5C95.27 405.39 87.39 413.27 79.5 421.16C76.15 416.19 74 412.72 67.5 413.16C59.68 417.72 55.59 447.01 53.15 456.54C51.89 461.48 50.16 466.05 53.5 470.49C59.68 474.39 105.41 462.55 109.9 456.5C111.2 448.61 105.92 447.36 101.28 442.5C109.02 434.72 116.76 426.94 124.5 419.16C132.97 432.58 143.39 432.35 157.13 436.5C157.13 439.74 157.13 442.99 157.13 446.23C153.26 446.23 149.38 446.23 145.5 446.23C144.35 447.32 143.21 448.41 142.06 449.5C140.38 457.55 164.93 499.65 173.5 500.82C180.95 498.25 204.45 457.19 202.86 449.5C201.74 448.43 200.62 447.36 199.5 446.29C195.52 446.29 191.53 446.29 187.55 446.29C187.55 441.9 187.55 437.52 187.55 433.14C191.87 428.43 196.18 423.72 200.5 419.01C225.49 417.55 250.32 422.88 275.5 419.52C282.23 429.15 282.5 439.82 293.69 446.84C301.2 451.55 310.95 451.53 319.5 452.01C357.89 454.16 367.13 440.73 374.29 404.5C401.36 398.33 428.43 392.16 455.5 386C460.75 392.83 461.07 402 469.15 407.37C474.96 411.23 481.85 410.84 488.5 411.27C495.53 411.73 503.18 412.83 510.16 411.57C532.28 407.57 533.61 379.48 537 362.5C563.42 347.26 571.86 320.88 566.36 291.34C564.86 283.29 563.41 273.2 557.2 267.32C548.4 259 534.66 262.82 523.95 260.5C528.47 233.66 532.98 206.81 537.5 179.97C543.26 181.76 547.57 184.57 552.5 179.51C555.26 171.55 539.94 135.14 535.5 126.56C533.83 126.56 532.17 126.56 530.5 126.56C525.5 131.39 520.5 136.22 515.5 141.05C516.36 133.87 517.21 126.68 518.07 119.5C516.38 118.34 514.69 117.17 513 116.01C510.39 116.01 507.78 116.01 505.18 116.01C508.27 111.94 509.93 108.58 507.5 103.66ZM471.19 146.5C451.96 169.35 432.73 192.21 413.5 215.06C392.57 213.54 371.63 212.02 350.7 210.5C359.45 203.56 370.28 199.06 379.9 193.41C400.1 181.53 420.58 170.04 440.99 158.51C447.44 154.87 465.58 140.6 471.19 146.5ZM492.5 165.5C494.17 167.94 495.83 170.38 497.5 172.82C501.5 173.54 505.5 174.25 509.5 174.97C506.5 193.28 503.5 211.58 500.5 229.89C489.85 219.68 467.67 215.96 453.72 211.5C466.65 196.17 479.57 180.84 492.5 165.5Z" fill="#505050" fill-rule="evenodd" stroke="#505050" stroke-width="0.25" stroke-linejoin="round"/>
<path d="M530.66 77.3C557.69 72.18 565.85 112.99 539.52 119.18C512.76 125.47 503.8 82.38 530.66 77.3ZM531.79 85.41C514.94 89.26 522.33 115.86 539.3 110.75C554.77 106.08 547.5 81.82 531.79 85.41ZM507.5 103.66C509.93 108.58 508.27 111.94 505.18 116.01C507.78 116.01 510.39 116.01 513 116.01C514.69 117.17 516.38 118.34 518.07 119.5C517.21 126.68 516.36 133.87 515.5 141.05C520.5 136.22 525.5 131.39 530.5 126.56C532.17 126.56 533.83 126.56 535.5 126.56C539.94 135.14 555.26 171.55 552.5 179.51C547.57 184.57 543.26 181.76 537.5 179.97C532.98 206.81 528.47 233.66 523.95 260.5C534.66 262.82 548.4 259 557.2 267.32C563.41 273.2 564.86 283.29 566.36 291.34C571.86 320.88 563.42 347.26 537 362.5C533.61 379.48 532.28 407.57 510.16 411.57C503.18 412.83 495.53 411.73 488.5 411.27C481.85 410.84 474.96 411.23 469.15 407.37C461.07 402 460.75 392.83 455.5 386C428.43 392.16 401.36 398.33 374.29 404.5C367.13 440.73 357.89 454.16 319.5 452.01C310.95 451.53 301.2 451.55 293.69 446.84C282.5 439.82 282.23 429.15 275.5 419.52C250.32 422.88 225.49 417.55 200.5 419.01C196.18 423.72 191.87 428.43 187.55 433.14C187.55 437.52 187.55 441.9 187.55 446.29C191.53 446.29 195.52 446.29 199.5 446.29C200.62 447.36 201.74 448.43 202.86 449.5C204.45 457.19 180.95 498.25 173.5 500.82C164.93 499.65 140.38 457.55 142.06 449.5C143.21 448.41 144.35 447.32 145.5 446.23C149.38 446.23 153.26 446.23 157.13 446.23C157.13 442.99 157.13 439.74 157.13 436.5C143.39 432.35 132.97 432.58 124.5 419.16C116.76 426.94 109.02 434.72 101.28 442.5C105.92 447.36 111.2 448.61 109.9 456.5C105.41 462.55 59.68 474.39 53.5 470.49C50.16 466.05 51.89 461.48 53.15 456.54C55.59 447.01 59.68 417.72 67.5 413.16C74 412.72 76.15 416.19 79.5 421.16C87.39 413.27 95.27 405.39 103.16 397.5C95.47 384.66 84.17 377.54 82.24 361.12C78.41 361.12 74.59 361.12 70.76 361.12C70.76 364.91 70.76 368.71 70.76 372.5C69.34 373.96 67.92 375.42 66.5 376.88C59 377.54 19.78 353.64 17.97 346.5C18.95 338.7 58.43 314.22 66.5 314.94C67.94 316.79 69.38 318.65 70.82 320.5C70.82 323.91 70.82 327.32 70.82 330.73C74.87 330.73 78.92 330.73 82.97 330.73C85.26 312.87 93.41 308.1 106.32 297.5C97.38 288.57 88.44 279.65 79.5 270.72C76.39 274.93 74.59 278.7 69 279.5C67.5 278.76 66 278.02 64.5 277.29C60.27 272.09 51.41 235.74 51.69 228.5C51.82 224.92 53.69 222.94 56.5 221.1C63.88 220.55 102.55 229.12 107.88 233.64C110.02 235.46 110.1 237.92 110.21 240.5C107.25 243.5 104.28 246.5 101.31 249.5C113.71 262.16 126.1 274.82 138.5 287.47C144.29 286.15 150.07 284.82 155.86 283.5C151.64 278.13 148.87 266.71 152.06 260.5C164.2 256.83 176.35 253.17 188.49 249.5C187.32 244.43 184.73 240.65 187.21 235.5C193.15 230.44 228.42 244.42 236.5 248.21C244.08 240.04 250.95 230.1 260.22 223.68C268.54 217.92 277.74 217.84 286.72 214.27C296.08 210.55 305.38 203.68 314.11 198.59C361.12 171.19 408.39 143.96 455.92 117.5C453.8 112.56 450.59 110.41 451.34 104.5C455.35 98.23 501.9 99.13 507.5 103.66ZM500.9 107.87C486.9 107.87 472.89 107.87 458.88 107.87C461.64 111.74 464.39 115.62 467.15 119.5C413.43 150.17 359.72 180.83 306.01 211.5C329.23 216.02 346.95 203.59 366.06 192.55C398.15 174.01 431.46 157.13 462.89 137.5C465.78 126.04 483.9 125.19 493.5 120.98C495.97 116.61 498.44 112.24 500.9 107.87ZM510.5 123C497.42 127.83 484.33 132.67 471.25 137.5C474.97 139.83 478.69 142.17 482.41 144.5C455.93 176.17 429.45 207.83 402.97 239.5C421.53 240.54 429.39 228.34 440.16 215.7C457.58 195.26 474.25 174 492.5 154.31C495.5 157.86 498.5 161.42 501.5 164.97C504.5 150.98 507.5 136.99 510.5 123ZM531.62 134.5C523.22 138.31 510.76 158.52 509.5 167.49C512.17 167.49 514.83 167.49 517.5 167.49C511.08 208.5 504.66 249.5 498.23 290.5C502.32 291.18 506.41 291.87 510.5 292.55C517.5 251.86 524.5 211.17 531.5 170.48C536.17 171.93 540.83 173.38 545.5 174.84C540.87 161.39 536.24 147.95 531.62 134.5ZM471.19 146.5C465.58 140.6 447.44 154.87 440.99 158.51C420.58 170.04 400.1 181.53 379.9 193.41C370.28 199.06 359.45 203.56 350.7 210.5C371.63 212.02 392.57 213.54 413.5 215.06C432.73 192.21 451.96 169.35 471.19 146.5ZM492.5 165.5C479.57 180.84 466.65 196.17 453.72 211.5C467.67 215.96 489.85 219.68 500.5 229.89C503.5 211.58 506.5 193.28 509.5 174.97C505.5 174.25 501.5 173.54 497.5 172.82C495.83 170.38 494.17 167.94 492.5 165.5ZM321.83 229.14C336.32 235.05 374.68 227.48 384.95 240.5C384.4 243.5 383.85 246.5 383.29 249.5C389.18 243 395.06 236.5 400.95 230C402.27 228.5 403.58 227 404.9 225.5C394.02 221.5 379.1 222.37 367.5 221.91C336.87 220.71 300.47 218.25 271.38 229.5C288.2 229.38 305.02 229.26 321.83 229.14ZM493.21 232.5C484.38 228.74 465.36 219.12 456.52 221.5C457.97 225.17 459.41 228.83 460.86 232.5C442.08 237.5 423.31 242.5 404.53 247.5C405.52 251.58 406.51 255.66 407.5 259.75C426.17 255.58 444.83 251.41 463.5 247.24C464.17 251.72 464.83 256.21 465.5 260.69C474.74 251.29 483.97 241.9 493.21 232.5ZM67.08 259C68.22 262.87 69.36 266.74 70.5 270.62C73.5 266.8 76.5 262.98 79.5 259.16C100.72 277.78 119.76 299.83 139.4 320.1C145.9 326.81 154.89 340.8 164.5 341.32C166.69 339.04 168.89 336.77 171.08 334.5C144.02 305.83 116.96 277.17 89.9 248.5C93.6 245.84 97.3 243.19 101 240.53C100.5 239.89 100 239.26 99.5 238.62C86.17 235.41 72.83 232.21 59.5 229C62.03 239 64.55 249 67.08 259ZM377.63 243.5C346.23 232.57 293.44 236.12 260.5 238.2C253.67 245.63 246.85 253.07 240.02 260.5C252.35 264.5 264.67 268.5 277 272.5C278.69 275.39 280.38 278.29 282.07 281.18C285.44 281.18 288.81 281.18 292.17 281.18C291.75 277.77 289.55 273 290.53 269.11C292.74 260.36 320.2 257.63 328.5 254.89C327.64 250.76 326.79 246.63 325.93 242.5C327.29 241.17 328.64 239.83 330 238.5C344.83 243.04 359.67 247.58 374.5 252.12C375.54 249.25 376.58 246.37 377.63 243.5ZM193.5 240.92C194.95 245.11 196.4 249.31 197.85 253.5C184.36 257.5 170.86 261.5 157.37 265.5C158.41 269.37 159.46 273.25 160.5 277.12C173.83 274.04 187.17 270.95 200.5 267.86C201.17 272.56 201.83 277.25 202.5 281.94C211.82 272.46 221.13 262.98 230.45 253.5C218.13 249.31 205.82 245.11 193.5 240.92ZM369.46 257.5C357.32 253.83 345.19 250.17 333.05 246.5C334.65 250.5 336.26 254.5 337.86 258.5C324.36 262.5 310.86 266.5 297.35 270.5C298.18 274.17 299 277.83 299.82 281.5C313.38 278.68 326.94 275.85 340.5 273.03C341.17 277.64 341.83 282.26 342.5 286.87C351.49 277.08 360.47 267.29 369.46 257.5ZM396.5 247.56C378.01 270.54 359.52 293.52 341.02 316.5C343.85 318.89 346.67 321.29 349.5 323.68C350.47 317.61 351.31 311.05 359.51 313.5C373.28 296.83 387.06 280.17 400.83 263.5C399.39 258.19 397.94 252.88 396.5 247.56ZM480.93 255.67C476.14 258.59 465.5 267.36 467.5 272.48C476.05 268.32 484.1 266.92 493.5 265.94C493.93 264.91 494.36 263.88 494.79 262.85C495.16 260.73 495.52 258.62 495.88 256.5C492.42 254.52 488.96 252.54 485.5 250.55C483.98 252.26 482.46 253.97 480.93 255.67ZM448.78 257.5C435.02 260.75 421.26 263.99 407.5 267.24C401.96 273.99 396.43 280.75 390.89 287.5C411.09 284.77 431.3 282.04 451.5 279.31C450.59 272.04 449.69 264.77 448.78 257.5ZM237.5 267.46C238.83 271.88 240.17 276.29 241.5 280.71C223.83 285.64 206.16 290.57 188.49 295.5C189.5 299.43 190.5 303.36 191.5 307.29C209.17 303.07 226.83 298.86 244.5 294.64C245.17 299.19 245.83 303.75 246.5 308.3C255.63 298.7 264.76 289.1 273.89 279.5C261.76 275.49 249.63 271.47 237.5 267.46ZM520.91 277C519.46 282.77 520.11 291.08 516.87 296.29C512.2 303.79 496.69 300.11 491.82 294.5C491.68 290.32 491.53 286.15 491.38 281.97C492.02 279.15 492.67 276.32 493.31 273.5C479.67 271.22 471.29 281.95 459.53 285.43C434.91 292.71 407.52 293.75 382.27 298.5C379.83 301.57 377.38 304.64 374.93 307.72C372.53 310.64 370.13 313.57 367.73 316.5C376.91 320.9 394.95 322.61 400.65 331.5C401.73 343 380.78 355.81 373.1 363.5C373.56 373.33 374.03 383.17 374.5 393C407.95 385.17 441.39 377.33 474.84 369.5C486.85 354.62 484.62 332.75 498.97 318.47C523.25 294.29 538.69 329.19 536 350.5C559.92 340.25 562.84 298.34 551.99 278.4C548 269.6 530.48 271.86 522.35 271.5C521.87 273.33 521.39 275.17 520.91 277ZM181.66 294.57C182.75 292.88 183.83 291.19 184.91 289.5C172.52 291.83 160.12 294.17 147.72 296.5C149.46 298.35 151.2 300.2 152.94 302.04C158.08 307.53 163.22 313.01 168.36 318.5C201.41 321.83 234.45 325.16 267.5 328.49C282.56 316.05 297.61 309.91 316.51 304.85C324.58 302.7 341.81 301.76 347.26 295.5C324.01 292.71 300.75 289.92 277.5 287.13C267.83 296.72 258.17 306.3 248.5 315.89C246.44 315.76 244.37 315.63 242.31 315.5C241.04 311.47 239.77 307.43 238.5 303.4C221.83 306.92 205.17 310.45 188.5 313.98C182.86 310.1 181.99 300.98 181.66 294.57ZM114.5 305.94C110.56 308.74 106.62 311.54 102.68 314.34C109.41 314.34 116.14 314.34 122.87 314.34C120.08 311.54 117.29 308.74 114.5 305.94ZM279.06 338.89C281.51 346.27 282.4 352.31 281.16 360.08C268.78 388.71 212.44 368.91 187.65 372.5C187.66 374.33 187.68 376.17 187.7 378C187.63 387.33 187.57 396.67 187.5 406C203.58 411.46 246.21 411.34 263.5 409.82C271.2 409.15 283.3 410.13 289.85 405.4C300.47 397.73 305.03 377.68 311.17 366.5C300.77 363.41 298.41 355.52 299.12 344.5C303.56 336.05 335 333 345.03 330.5C341.04 326.3 337.06 322.11 333.07 317.91C334.22 314.77 335.38 311.64 336.54 308.5C320.17 309.65 285.15 320.44 274.6 333.5C276.09 335.3 277.57 337.09 279.06 338.89ZM393.73 334.5C381.55 330.17 369.36 325.83 357.18 321.5C358.58 325.5 359.98 329.5 361.37 333.5C342.86 337.83 324.36 342.17 305.85 346.5C306.73 350.59 307.62 354.69 308.5 358.78C326.96 355.26 345.41 351.74 363.87 348.22C363.87 352.73 363.87 357.23 363.87 361.73C373.82 352.66 383.77 343.58 393.73 334.5ZM105.79 322.5C99.42 321.48 96.04 324.42 95.23 330.76C98.75 330.76 102.27 330.76 105.79 330.76C105.79 328.01 105.79 325.25 105.79 322.5ZM63.09 368.7C63.77 367.97 64.45 367.23 65.12 366.5C64.39 362.83 63.65 359.17 62.92 355.5C82.07 351.6 104.91 355 124.5 354.82C135.77 354.72 144.44 356.65 152.79 348.5C152.87 347.66 152.94 346.83 153.02 345.99C150.84 343.61 148.67 341.23 146.5 338.84C118.01 338.86 89.52 338.88 61.02 338.9C61.52 333.63 62.01 328.37 62.5 323.1C50.44 330.57 38.39 338.03 26.33 345.5C38.58 353.23 50.84 360.97 63.09 368.7ZM133.5 324.67C127.48 324.67 121.45 324.67 115.43 324.67C115.43 326.68 115.43 328.7 115.43 330.71C122.97 330.71 130.5 330.71 138.04 330.71C136.53 328.7 135.01 326.68 133.5 324.67ZM512.5 324.02C491.24 323.07 489.88 369.22 493.46 383.13C495.01 389.12 498.93 400.52 506.5 400.79C515.33 401.11 519.98 390.13 522.46 383.33C528.24 367.49 529.94 333.66 512.5 324.02ZM184.96 329.57C182.92 329.57 180.88 329.57 178.84 329.57C178.84 334.21 178.84 338.86 178.84 343.5C186.1 348.78 187.92 352.34 187.95 361.5C195.35 363.09 209.54 365.27 215.93 360.5C218.99 353.9 215.09 344.67 212.03 338.5C210.52 336.4 209.01 334.31 207.5 332.21C198.67 331.64 189.83 331.07 181 330.5C182.32 330.19 183.64 329.88 184.96 329.57ZM243.5 333.18C235.66 333.18 227.82 333.18 219.98 333.18C225.35 343.7 228.08 355.44 223.72 366.56C230.18 366.56 236.63 366.56 243.08 366.56C235.13 350.97 236.97 347.88 243.5 333.18ZM254.95 336.54C237.79 341.2 245.95 369.96 263.3 364.74C279.42 359.9 271.54 332.04 254.95 336.54ZM507.5 338.14C527.15 338.12 524.97 378.92 511.5 386.67C492 388.44 492.9 344.97 507.5 338.14ZM508.5 379.33C515.43 374.44 518.02 349.75 509.33 345.5C501.77 352.41 501.33 372.08 508.5 379.33ZM65.16 441C63.61 448.78 62.05 456.56 60.5 464.34C70.67 461.55 80.83 458.76 91 455.98C94.5 454.88 98 453.78 101.5 452.69C97.64 449.63 93.79 446.56 89.93 443.5C116.9 414.83 143.87 386.17 170.84 357.5C168.06 354.77 165.28 352.03 162.5 349.3C134.83 377.31 107.17 405.32 79.5 433.33C76.5 429.47 73.5 425.62 70.5 421.76C68.72 428.18 66.94 434.59 65.16 441ZM350.5 357.19C342.5 359.01 334.5 360.84 326.5 362.66C314.57 378.58 312.63 402.98 318.32 421.5C320.88 429.87 326.25 441.48 336.5 441.84C347.03 442.2 354.19 432.16 358.08 423.56C366.14 405.76 368.9 370.19 350.5 357.19ZM171.81 369.75C170.18 371.44 168.55 373.13 166.93 374.83C166.38 401.58 165.84 428.34 165.29 455.09C160.33 454.56 155.37 454.03 150.41 453.5C157.78 466.39 165.14 479.27 172.5 492.16C179.95 479.61 187.41 467.05 194.86 454.5C189.76 454.67 184.66 454.83 179.55 455C179.53 423 179.52 391 179.5 359C176.94 362.58 174.37 366.16 171.81 369.75ZM93.99 365C95.86 374.44 103.47 382.58 110.5 388.74C116.37 382.9 122.23 377.05 128.1 371.21C129.79 369.64 131.48 368.07 133.17 366.5C122.97 361.61 103.83 359.14 92.84 361.5C93.22 362.67 93.6 363.83 93.99 365ZM337.65 371.19C361.95 363.25 362.17 425.57 340.51 425.85C318.95 426.13 320.04 376.94 337.65 371.19ZM483.3 377.2C478.08 379.3 472.86 381.4 467.65 383.5C468.98 396.11 478.32 402.27 490.46 399.5C488.41 396.61 486.7 387.96 483.3 388.5C483.3 384.73 483.3 380.97 483.3 377.2ZM342.5 378.05C328.16 379 327.25 413.75 339.5 418.39C352.69 414.26 352.57 385.3 342.5 378.05ZM157.55 384.43C152.76 389.45 147.98 394.48 143.19 399.5C147.98 400.17 152.76 400.83 157.55 401.5C157.55 395.81 157.55 390.12 157.55 384.43ZM307.36 399.64C300.7 406.03 298.55 416.16 287.5 418.06C288.83 421.04 290.17 424.02 291.5 427C290.99 432.01 297.51 438.57 302.5 437C301.71 440.94 314.5 440.76 317.5 440.52C314.12 435.18 310.74 429.84 307.36 424.5C307.36 416.21 307.36 407.93 307.36 399.64ZM157.06 413.5C150.05 412.01 138.64 408.34 132.8 411.5C141.21 416.33 138.08 426.55 157.06 424.5C157.06 420.83 157.06 417.17 157.06 413.5Z" fill="#272e32" fill-rule="evenodd" stroke="#272e32" stroke-width="0.25" stroke-linejoin="round"/>
<path d="M400.95 230C395.06 236.5 389.18 243 383.29 249.5C383.85 246.5 384.4 243.5 384.95 240.5C374.68 227.48 336.32 235.05 321.83 229.14C321.06 228.51 320.28 227.87 319.5 227.24C346.35 226.19 374.35 225.83 400.95 230ZM480.93 255.67C481.79 255.79 482.64 255.9 483.5 256.02C487.26 258.3 491.03 260.57 494.79 262.85C494.36 263.88 493.93 264.91 493.5 265.94C484.1 266.92 476.05 268.32 467.5 272.48C465.5 267.36 476.14 258.59 480.93 255.67ZM520.91 277C521.77 277.63 522.64 278.27 523.5 278.9C532.5 279.5 541.5 280.11 550.5 280.71C551 279.94 551.49 279.17 551.99 278.4C562.84 298.34 559.92 340.25 536 350.5C538.69 329.19 523.25 294.29 498.97 318.47C484.62 332.75 486.85 354.62 474.84 369.5C441.39 377.33 407.95 385.17 374.5 393C374.03 383.17 373.56 373.33 373.1 363.5C380.78 355.81 401.73 343 400.65 331.5C394.95 322.61 376.91 320.9 367.73 316.5C370.13 313.57 372.53 310.64 374.93 307.72C398.66 304.13 422.38 300.55 446.1 296.97C446.82 301.15 447.53 305.32 448.24 309.5C435.66 312.98 423.08 316.46 410.5 319.94C407.32 325.47 409.75 336.33 413.15 341.5C421.37 347.28 443.15 339.1 452.5 336.87C454 341.42 455.5 345.96 457 350.5C464.81 350.61 493.43 324.35 496.37 316.5C496.08 314.8 495.79 313.1 495.5 311.4C482.75 305.91 470.01 300.42 457.26 294.92C464.36 291.03 483.52 278.2 491.38 281.97C491.53 286.15 491.68 290.32 491.82 294.5C496.69 300.11 512.2 303.79 516.87 296.29C520.11 291.08 519.46 282.77 520.91 277ZM152.94 302.04C162.51 299.55 172.09 297.06 181.66 294.57C181.99 300.98 182.86 310.1 188.5 313.98C205.17 310.45 221.83 306.92 238.5 303.4C239.77 307.43 241.04 311.47 242.31 315.5C244.37 315.63 246.44 315.76 248.5 315.89C258.17 306.3 267.83 296.72 277.5 287.13C300.75 289.92 324.01 292.71 347.26 295.5C341.81 301.76 324.58 302.7 316.51 304.85C297.61 309.91 282.56 316.05 267.5 328.49C234.45 325.16 201.41 321.83 168.36 318.5C163.22 313.01 158.08 307.53 152.94 302.04ZM333.07 317.91C337.06 322.11 341.04 326.3 345.03 330.5C335 333 303.56 336.05 299.12 344.5C298.41 355.52 300.77 363.41 311.17 366.5C305.03 377.68 300.47 397.73 289.85 405.4C283.3 410.13 271.2 409.15 263.5 409.82C246.21 411.34 203.58 411.46 187.5 406C187.57 396.67 187.63 387.33 187.7 378C202.34 381.95 249.65 381.99 265.5 380.1C273.32 379.16 285.77 368.97 281.16 360.08C282.4 352.31 281.51 346.27 279.06 338.89C290.53 326.26 316.45 318.82 333.07 317.91ZM243.5 333.18C236.97 347.88 235.13 350.97 243.08 366.56C236.63 366.56 230.18 366.56 223.72 366.56C228.08 355.44 225.35 343.7 219.98 333.18C227.82 333.18 235.66 333.18 243.5 333.18ZM128.1 371.21C122.23 377.05 116.37 382.9 110.5 388.74C103.47 382.58 95.86 374.44 93.99 365C105.36 367.07 116.73 369.14 128.1 371.21ZM157.55 384.43C157.55 390.12 157.55 395.81 157.55 401.5C152.76 400.83 147.98 400.17 143.19 399.5C147.98 394.48 152.76 389.45 157.55 384.43Z" fill="#8d9799" fill-rule="evenodd" stroke="#8d9799" stroke-width="0.25" stroke-linejoin="round"/>
<path d="M531.79 85.41C547.5 81.82 554.77 106.08 539.3 110.75C522.33 115.86 514.94 89.26 531.79 85.41ZM500.9 107.87C498.44 112.24 495.97 116.61 493.5 120.98C483.9 125.19 465.78 126.04 462.89 137.5C431.46 157.13 398.15 174.01 366.06 192.55C346.95 203.59 329.23 216.02 306.01 211.5C359.72 180.83 413.43 150.17 467.15 119.5C464.39 115.62 461.64 111.74 458.88 107.87C472.89 107.87 486.9 107.87 500.9 107.87ZM510.5 123C507.5 136.99 504.5 150.98 501.5 164.97C498.5 161.42 495.5 157.86 492.5 154.31C474.25 174 457.58 195.26 440.16 215.7C429.39 228.34 421.53 240.54 402.97 239.5C429.45 207.83 455.93 176.17 482.41 144.5C478.69 142.17 474.97 139.83 471.25 137.5C484.33 132.67 497.42 127.83 510.5 123ZM531.62 134.5C536.24 147.95 540.87 161.39 545.5 174.84C540.83 173.38 536.17 171.93 531.5 170.48C524.5 211.17 517.5 251.86 510.5 292.55C506.41 291.87 502.32 291.18 498.23 290.5C504.66 249.5 511.08 208.5 517.5 167.49C514.83 167.49 512.17 167.49 509.5 167.49C510.76 158.52 523.22 138.31 531.62 134.5ZM396.5 247.56C397.94 252.88 399.39 258.19 400.83 263.5C387.06 280.17 373.28 296.83 359.51 313.5C351.31 311.05 350.47 317.61 349.5 323.68C346.67 321.29 343.85 318.89 341.02 316.5C359.52 293.52 378.01 270.54 396.5 247.56Z" fill="#508bbe" fill-rule="evenodd" stroke="#508bbe" stroke-width="0.25" stroke-linejoin="round"/>
<path d="M377.63 243.5C376.58 246.37 375.54 249.25 374.5 252.12C359.67 247.58 344.83 243.04 330 238.5C328.64 239.83 327.29 241.17 325.93 242.5C326.79 246.63 327.64 250.76 328.5 254.89C320.2 257.63 292.74 260.36 290.53 269.11C289.55 273 291.75 277.77 292.17 281.18C288.81 281.18 285.44 281.18 282.07 281.18C280.38 278.29 278.69 275.39 277 272.5C264.67 268.5 252.35 264.5 240.02 260.5C246.85 253.07 253.67 245.63 260.5 238.2C293.44 236.12 346.23 232.57 377.63 243.5ZM448.78 257.5C449.69 264.77 450.59 272.04 451.5 279.31C431.3 282.04 411.09 284.77 390.89 287.5C396.43 280.75 401.96 273.99 407.5 267.24C421.26 263.99 435.02 260.75 448.78 257.5ZM133.5 324.67C135.01 326.68 136.53 328.7 138.04 330.71C130.5 330.71 122.97 330.71 115.43 330.71C115.43 328.7 115.43 326.68 115.43 324.67C121.45 324.67 127.48 324.67 133.5 324.67ZM512.5 324.02C529.94 333.66 528.24 367.49 522.46 383.33C519.98 390.13 515.33 401.11 506.5 400.79C498.93 400.52 495.01 389.12 493.46 383.13C489.88 369.22 491.24 323.07 512.5 324.02ZM184.96 329.57C183.64 329.88 182.32 330.19 181 330.5C189.83 331.07 198.67 331.64 207.5 332.21C209.01 334.31 210.52 336.4 212.03 338.5C215.09 344.67 218.99 353.9 215.93 360.5C209.54 365.27 195.35 363.09 187.95 361.5C187.92 352.34 186.1 348.78 178.84 343.5C178.84 338.86 178.84 334.21 178.84 329.57C180.88 329.57 182.92 329.57 184.96 329.57ZM507.5 338.14C492.9 344.97 492 388.44 511.5 386.67C524.97 378.92 527.15 338.12 507.5 338.14ZM350.5 357.19C368.9 370.19 366.14 405.76 358.08 423.56C354.19 432.16 347.03 442.2 336.5 441.84C326.25 441.48 320.88 429.87 318.32 421.5C312.63 402.98 314.57 378.58 326.5 362.66C334.5 360.84 342.5 359.01 350.5 357.19ZM337.65 371.19C320.04 376.94 318.95 426.13 340.51 425.85C362.17 425.57 361.95 363.25 337.65 371.19ZM483.3 377.2C483.3 380.97 483.3 384.73 483.3 388.5C486.7 387.96 488.41 396.61 490.46 399.5C478.32 402.27 468.98 396.11 467.65 383.5C472.86 381.4 478.08 379.3 483.3 377.2ZM307.36 399.64C307.36 407.93 307.36 416.21 307.36 424.5C310.74 429.84 314.12 435.18 317.5 440.52C314.5 440.76 301.71 440.94 302.5 437C297.51 438.57 290.99 432.01 291.5 427C290.17 424.02 288.83 421.04 287.5 418.06C298.55 416.16 300.7 406.03 307.36 399.64ZM157.06 413.5C157.06 417.17 157.06 420.83 157.06 424.5C138.08 426.55 141.21 416.33 132.8 411.5C138.64 408.34 150.05 412.01 157.06 413.5Z" fill="#636e70" fill-rule="evenodd" stroke="#636e70" stroke-width="0.25" stroke-linejoin="round"/>
<path d="M101 240.53C97.3 243.19 93.6 245.84 89.9 248.5C116.96 277.17 144.02 305.83 171.08 334.5C168.89 336.77 166.69 339.04 164.5 341.32C154.89 340.8 145.9 326.81 139.4 320.1C119.76 299.83 100.72 277.78 79.5 259.16C76.5 262.98 73.5 266.8 70.5 270.62C69.36 266.74 68.22 262.87 67.08 259C65.55 249.66 64.03 240.32 62.5 230.98C75.33 234.17 88.17 237.35 101 240.53ZM61.02 338.9C89.12 339.43 117.21 339.97 145.31 340.5C147.2 342.72 149.1 344.95 150.99 347.17C149.49 349.01 148 350.85 146.5 352.69C117.94 352.96 89.38 353.23 60.82 353.5C61.58 358.57 62.33 363.63 63.09 368.7C50.84 360.97 38.58 353.23 26.33 345.5C38.39 338.03 50.44 330.57 62.5 323.1C62.01 328.37 61.52 333.63 61.02 338.9ZM91 455.98C81.5 457.9 72 459.83 62.5 461.76C63.39 454.84 64.28 447.92 65.16 441C66.94 434.59 68.72 428.18 70.5 421.76C73.5 425.62 76.5 429.47 79.5 433.33C107.17 405.32 134.83 377.31 162.5 349.3C165.28 352.03 168.06 354.77 170.84 357.5C143.87 386.17 116.9 414.83 89.93 443.5C93.79 446.56 97.64 449.63 101.5 452.69C98 453.78 94.5 454.88 91 455.98ZM179.55 455C184.66 454.83 189.76 454.67 194.86 454.5C187.41 467.05 179.95 479.61 172.5 492.16C165.14 479.27 157.78 466.39 150.41 453.5C155.37 454.03 160.33 454.56 165.29 455.09C165.81 454.89 166.32 454.7 166.84 454.5C166.87 427.94 166.9 401.39 166.93 374.83C168.55 373.13 170.18 371.44 171.81 369.75C173.71 368.22 175.6 366.69 177.5 365.17C177.69 394.94 177.87 424.72 178.06 454.5C178.55 454.67 179.05 454.83 179.55 455Z" fill="#facc0b" fill-rule="evenodd" stroke="#facc0b" stroke-width="0.25" stroke-linejoin="round"/>
<path d="M493.21 232.5C483.97 241.9 474.74 251.29 465.5 260.69C464.83 256.21 464.17 251.72 463.5 247.24C444.83 251.41 426.17 255.58 407.5 259.75C406.51 255.66 405.52 251.58 404.53 247.5C423.31 242.5 442.08 237.5 460.86 232.5C459.41 228.83 457.97 225.17 456.52 221.5C465.36 219.12 484.38 228.74 493.21 232.5ZM193.5 240.92C205.82 245.11 218.13 249.31 230.45 253.5C221.13 262.98 211.82 272.46 202.5 281.94C201.83 277.25 201.17 272.56 200.5 267.86C187.17 270.95 173.83 274.04 160.5 277.12C159.46 273.25 158.41 269.37 157.37 265.5C170.86 261.5 184.36 257.5 197.85 253.5C196.4 249.31 194.95 245.11 193.5 240.92ZM369.46 257.5C360.47 267.29 351.49 277.08 342.5 286.87C341.83 282.26 341.17 277.64 340.5 273.03C326.94 275.85 313.38 278.68 299.82 281.5C299 277.83 298.18 274.17 297.35 270.5C310.86 266.5 324.36 262.5 337.86 258.5C336.26 254.5 334.65 250.5 333.05 246.5C345.19 250.17 357.32 253.83 369.46 257.5ZM237.5 267.46C249.63 271.47 261.76 275.49 273.89 279.5C264.76 289.1 255.63 298.7 246.5 308.3C245.83 303.75 245.17 299.19 244.5 294.64C226.83 298.86 209.17 303.07 191.5 307.29C190.5 303.36 189.5 299.43 188.49 295.5C206.16 290.57 223.83 285.64 241.5 280.71C240.17 276.29 238.83 271.88 237.5 267.46ZM453.5 301.31C465.62 306.04 477.74 310.77 489.86 315.5C480.41 324.43 470.95 333.37 461.5 342.3C460.83 337.85 460.17 333.4 459.5 328.94C445.83 331.51 432.17 334.07 418.5 336.63C417.5 332.42 416.5 328.21 415.5 324C429.35 320.83 443.21 317.67 457.06 314.5C455.87 310.1 454.69 305.71 453.5 301.31ZM393.73 334.5C383.77 343.58 373.82 352.66 363.87 361.73C363.87 357.23 363.87 352.73 363.87 348.22C345.41 351.74 326.96 355.26 308.5 358.78C307.62 354.69 306.73 350.59 305.85 346.5C324.36 342.17 342.86 337.83 361.37 333.5C359.98 329.5 358.58 325.5 357.18 321.5C369.36 325.83 381.55 330.17 393.73 334.5Z" fill="#da4841" fill-rule="evenodd" stroke="#da4841" stroke-width="0.25" stroke-linejoin="round"/>
<path d="M400.95 230C374.35 225.83 346.35 226.19 319.5 227.24C320.28 227.87 321.06 228.51 321.83 229.14C305.02 229.26 288.2 229.38 271.38 229.5C300.47 218.25 336.87 220.71 367.5 221.91C379.1 222.37 394.02 221.5 404.9 225.5C403.58 227 402.27 228.5 400.95 230ZM494.79 262.85C491.03 260.57 487.26 258.3 483.5 256.02C482.64 255.9 481.79 255.79 480.93 255.67C482.46 253.97 483.98 252.26 485.5 250.55C488.96 252.54 492.42 254.52 495.88 256.5C495.52 258.62 495.16 260.73 494.79 262.85ZM551.99 278.4C551.49 279.17 551 279.94 550.5 280.71C541.5 280.11 532.5 279.5 523.5 278.9C522.64 278.27 521.77 277.63 520.91 277C521.39 275.17 521.87 273.33 522.35 271.5C530.48 271.86 548 269.6 551.99 278.4ZM491.38 281.97C483.52 278.2 464.36 291.03 457.26 294.92C452.47 293.97 449.9 293.55 446.1 296.97C422.38 300.55 398.66 304.13 374.93 307.72C377.38 304.64 379.83 301.57 382.27 298.5C407.52 293.75 434.91 292.71 459.53 285.43C471.29 281.95 479.67 271.22 493.31 273.5C492.67 276.32 492.02 279.15 491.38 281.97ZM181.66 294.57C172.09 297.06 162.51 299.55 152.94 302.04C151.2 300.2 149.46 298.35 147.72 296.5C160.12 294.17 172.52 291.83 184.91 289.5C183.83 291.19 182.75 292.88 181.66 294.57ZM114.5 305.94C117.29 308.74 120.08 311.54 122.87 314.34C116.14 314.34 109.41 314.34 102.68 314.34C106.62 311.54 110.56 308.74 114.5 305.94ZM333.07 317.91C316.45 318.82 290.53 326.26 279.06 338.89C277.57 337.09 276.09 335.3 274.6 333.5C285.15 320.44 320.17 309.65 336.54 308.5C335.38 311.64 334.22 314.77 333.07 317.91ZM105.79 322.5C105.79 325.25 105.79 328.01 105.79 330.76C102.27 330.76 98.75 330.76 95.23 330.76C96.04 324.42 99.42 321.48 105.79 322.5ZM254.95 336.54C271.54 332.04 279.42 359.9 263.3 364.74C245.95 369.96 237.79 341.2 254.95 336.54ZM508.5 379.33C501.33 372.08 501.77 352.41 509.33 345.5C518.02 349.75 515.43 374.44 508.5 379.33ZM281.16 360.08C285.77 368.97 273.32 379.16 265.5 380.1C249.65 381.99 202.34 381.95 187.7 378C187.68 376.17 187.66 374.33 187.65 372.5C212.44 368.91 268.78 388.71 281.16 360.08ZM128.1 371.21C116.73 369.14 105.36 367.07 93.99 365C93.6 363.83 93.22 362.67 92.84 361.5C103.83 359.14 122.97 361.61 133.17 366.5C131.48 368.07 129.79 369.64 128.1 371.21ZM342.5 378.05C352.57 385.3 352.69 414.26 339.5 418.39C327.25 413.75 328.16 379 342.5 378.05Z" fill="#b3bdbf" fill-rule="evenodd" stroke="#b3bdbf" stroke-width="0.25" stroke-linejoin="round"/>
<path d="M457.26 294.92C470.01 300.42 482.75 305.91 495.5 311.4C495.79 313.1 496.08 314.8 496.37 316.5C493.43 324.35 464.81 350.61 457 350.5C455.5 345.96 454 341.42 452.5 336.87C443.15 339.1 421.37 347.28 413.15 341.5C409.75 336.33 407.32 325.47 410.5 319.94C423.08 316.46 435.66 312.98 448.24 309.5C447.53 305.32 446.82 301.15 446.1 296.97C449.9 293.55 452.47 293.97 457.26 294.92ZM453.5 301.31C454.69 305.71 455.87 310.1 457.06 314.5C443.21 317.67 429.35 320.83 415.5 324C416.5 328.21 417.5 332.42 418.5 336.63C432.17 334.07 445.83 331.51 459.5 328.94C460.17 333.4 460.83 337.85 461.5 342.3C470.95 333.37 480.41 324.43 489.86 315.5C477.74 310.77 465.62 306.04 453.5 301.31ZM153.02 345.99C152.94 346.83 152.87 347.66 152.79 348.5C144.44 356.65 135.77 354.72 124.5 354.82C104.91 355 82.07 351.6 62.92 355.5C63.65 359.17 64.39 362.83 65.12 366.5C64.45 367.23 63.77 367.97 63.09 368.7C62.33 363.63 61.58 358.57 60.82 353.5C89.38 353.23 117.94 352.96 146.5 352.69C148 350.85 149.49 349.01 150.99 347.17C151.67 346.78 152.34 346.38 153.02 345.99Z" fill="#2d2709" fill-rule="evenodd" stroke="#2d2709" stroke-width="0.25" stroke-linejoin="round"/>
<path d="M101 240.53C88.17 237.35 75.33 234.17 62.5 230.98C64.03 240.32 65.55 249.66 67.08 259C64.55 249 62.03 239 59.5 229C72.83 232.21 86.17 235.41 99.5 238.62C100 239.26 100.5 239.89 101 240.53ZM61.02 338.9C89.52 338.88 118.01 338.86 146.5 338.84C148.67 341.23 150.84 343.61 153.02 345.99C152.34 346.38 151.67 346.78 150.99 347.17C149.1 344.95 147.2 342.72 145.31 340.5C117.21 339.97 89.12 339.43 61.02 338.9ZM179.55 455C179.05 454.83 178.55 454.67 178.06 454.5C177.87 424.72 177.69 394.94 177.5 365.17C175.6 366.69 173.71 368.22 171.81 369.75C174.37 366.16 176.94 362.58 179.5 359C179.52 391 179.53 423 179.55 455ZM166.93 374.83C166.9 401.39 166.87 427.94 166.84 454.5C166.32 454.7 165.81 454.89 165.29 455.09C165.84 428.34 166.38 401.58 166.93 374.83ZM65.16 441C64.28 447.92 63.39 454.84 62.5 461.76C72 459.83 81.5 457.9 91 455.98C80.83 458.76 70.67 461.55 60.5 464.34C62.05 456.56 63.61 448.78 65.16 441Z" fill="#f4d444" fill-rule="evenodd" stroke="#f4d444" stroke-width="0.25" stroke-linejoin="round"/>
</svg>