<?xml version="1.0" encoding="UTF-8"?>
<svg xmlns="http://www.w3.org/2000/svg" viewBox="0 0 619 596" width="619" height="596">
<path d="M531.79 85.41C547.5 81.82 554.77 106.08 539.3 110.75C522.33 115.86 514.94 89.26 531.79 85.41ZM500.9 107.87C498.44 112.24 495.97 116.61 493.5 120.98C483.9 125.19 465.78 126.04 462.89 137.5C431.46 157.13 398.15 174.01 366.06 192.55C346.95 203.59 329.23 216.02 306.01 211.5C359.72 180.83 413.43 150.17 467.15 119.5C464.39 115.62 461.64 111.74 458.88 107.87C472.89 107.87 486.9 107.87 500.9 107.87ZM510.5 123C507.5 136.99 504.5 150.98 501.5 164.97C498.5 161.42 495.5 157.86 492.5 154.31C474.25 174 457.58 195.26 440.16 215.7C429.39 228.34 421.53 240.54 402.97 239.5C429.45 207.83 455.93 176.17 482.41 144.5C478.69 142.17 474.97 139.83 471.25 137.5C484.33 132.67 497.42 127.83 510.5 123ZM531.62 134.5C536.24 147.95 540.87 161.39 545.5 174.84C540.83 173.38 536.17 171.93 531.5 170.48C524.5 211.17 517.5 251.86 510.5 292.55C506.41 291.87 502.32 291.18 498.23 290.5C504.66 249.5 511.08 208.5 517.5 167.49C514.83 167.49 512.17 167.49 509.5 167.49C510.76 158.52 523.22 138.31 531.62 134.5ZM396.5 247.56C397.94 252.88 399.39 258.19 400.83 263.5C387.06 280.17 373.28 296.83 359.51 313.5C351.31 311.05 350.47 317.61 349.5 323.68C346.67 321.29 343.85 318.89 341.02 316.5C359.52 293.52 378.01 270.54 396.5 247.56Z" fill="#508bbe" fill-rule="evenodd" stroke="#508bbe" stroke-width="0.25" stroke-linejoin="round"/>
<path d="M101 240.53C97.3 243.19 93.6 245.84 89.9 248.5C116.96 277.17 144.02 305.83 171.08 334.5C168.89 336.77 166.69 339.04 164.5 341.32C154.89 340.8 145.9 326.81 139.4 320.1C119.76 299.83 100.72 277.78 79.5 259.16C76.5 262.98 73.5 266.8 70.5 270.62C69.36 266.74 68.22 262.87 67.08 259C65.55 249.66 64.03 240.32 62.5 230.98C75.33 234.17 88.17 237.35 101 240.53ZM61.02 338.9C89.12 339.43 117.21 339.97 145.31 340.5C147.2 342.72 149.1 344.95 150.99 347.17C149.49 349.01 148 350.85 146.5 352.69C117.94 352.96 89.38 353.23 60.82 353.5C61.58 358.57 62.33 363.63 63.09 368.7C50.84 360.97 38.58 353.23 26.33 345.5C38.39 338.03 50.44 330.57 62.5 323.1C62.01 328.37 61.52 333.63 61.02 338.9ZM91 455.98C81.5 457.9 72 459.83 62.5 461.76C63.39 454.84 64.28 447.92 65.16 441C66.94 434.59 68.72 428.18 70.5 421.76C73.5 425.62 76.5 429.47 79.5 433.33C107.17 405.32 134.83 377.31 162.5 349.3C165.28 352.03 168.06 354.77 170.84 357.5C143.87 386.17 116.9 414.83 89.93 443.5C93.79 446.56 97.64 449.63 101.5 452.69C98 453.78 94.5 454.88 91 455.98ZM179.55 455C184.66 454.83 189.76 454.67 194.86 454.5C187.41 467.05 179.95 479.61 172.5 492.16C165.14 479.27 157.78 466.39 150.41 453.5C155.37 454.03 160.33 454.56 165.29 455.09C165.81 454.89 166.32 454.7 166.84 454.5C166.87 427.94 166.9 401.39 166.93 374.83C168.55 373.13 170.18 371.44 171.81 369.75C173.71 368.22 175.6 366.69 177.5 365.17C177.69 394.94 177.87 424.72 178.06 454.5C178.55 454.67 179.05 454.83 179.55 455Z" fill="#facc0b" fill-rule="evenodd" stroke="#facc0b" stroke-width="0.25" stroke-linejoin="round"/>
<path d="M493.21 232.5C483.97 241.9 474.74 251.29 465.5 260.69C464.83 256.21 464.17 251.72 463.5 247.24C444.83 251.41 426.17 255.58 407.5 259.75C406.51 255.66 405.52 251.58 404.53 247.5C423.31 242.5 442.08 237.5 460.86 232.5C459.41 228.83 457.97 225.17 456.52 221.5C465.36 219.12 484.38 228.74 493.21 232.5ZM193.5 240.92C205.82 245.11 218.13 249.31 230.45 253.5C221.13 262.98 211.82 272.46 202.5 281.94C201.83 277.25 201.17 272.56 200.5 267.86C187.17 270.95 173.83 274.04 160.5 277.12C159.46 273.25 158.41 269.37 157.37 265.5C170.86 261.5 184.36 257.5 197.85 253.5C196.4 249.31 194.95 245.11 193.5 240.92ZM369.46 257.5C360.47 267.29 351.49 277.08 342.5 286.87C341.83 282.26 341.17 277.64 340.5 273.03C326.94 275.85 313.38 278.68 299.82 281.5C299 277.83 298.18 274.17 297.35 270.5C310.86 266.5 324.36 262.5 337.86 258.5C336.26 254.5 334.65 250.5 333.05 246.5C345.19 250.17 357.32 253.83 369.46 257.5ZM237.5 267.46C249.63 271.47 261.76 275.49 273.89 279.5C264.76 289.1 255.63 298.7 246.5 308.3C245.83 303.75 245.17 299.19 244.5 294.64C226.83 298.86 209.17 303.07 191.5 307.29C190.5 303.36 189.5 299.43 188.49 295.5C206.16 290.57 223.83 285.64 241.5 280.71C240.17 276.29 238.83 271.88 237.5 267.46ZM453.5 301.31C465.62 306.04 477.74 310.77 489.86 315.5C480.41 324.43 470.95 333.37 461.5 342.3C460.83 337.85 460.17 333.4 459.5 328.94C445.83 331.51 432.17 334.07 418.5 336.63C417.5 332.42 416.5 328.21 415.5 324C429.35 320.83 443.21 317.67 457.06 314.5C455.87 310.1 454.69 305.71 453.5 301.31ZM393.73 334.5C383.77 343.58 373.82 352.66 363.87 361.73C363.87 357.23 363.87 352.73 363.87 348.22C345.41 351.74 326.96 355.26 308.5 358.78C307.62 354.69 306.73 350.59 305.85 346.5C324.36 342.17 342.86 337.83 361.37 333.5C359.98 329.5 358.58 325.5 357.18 321.5C369.36 325.83 381.55 330.17 393.73 334.5Z" fill="#da4841" fill-rule="evenodd" stroke="#da4841" stroke-width="0.25" stroke-linejoin="round"/>
<path d="M101 240.53C88.17 237.35 75.33 234.17 62.5 230.98C64.03 240.32 65.55 249.66 67.08 259C64.55 249 62.03 239 59.5 229C72.83 232.21 86.17 235.41 99.5 238.62C100 239.26 100.5 239.89 101 240.53ZM61.02 338.9C89.52 338.88 118.01 338.86 146.5 338.84C148.67 341.23 150.84 343.61 153.02 345.99C152.34 346.38 151.67 346.78 150.99 347.17C149.1 344.95 147.2 342.72 145.31 340.5C117.21 339.97 89.12 339.43 61.02 338.9ZM179.55 455C179.05 454.83 178.55 454.67 178.06 454.5C177.87 424.72 177.69 394.94 177.5 365.17C175.6 366.69 173.71 368.22 171.81 369.75C174.37 366.16 176.94 362.58 179.5 359C179.52 391 179.53 423 179.55 455ZM166.93 374.83C166.9 401.39 166.87 427.94 166.84 454.5C166.32 454.7 165.81 454.89 165.29 455.09C165.84 428.34 166.38 401.58 166.93 374.83ZM65.16 441C64.28 447.92 63.39 454.84 62.5 461.76C72 459.83 81.5 457.9 91 455.98C80.83 458.76 70.67 461.55 60.5 464.34C62.05 456.56 63.61 448.78 65.16 441Z" fill="#f4d444" fill-rule="evenodd" stroke="#f4d444" stroke-width="0.25" stroke-linejoin="round"/>
</svg>
