<svg xmlns="http://www.w3.org/2000/svg" version="1.1" width="443.639" height="433" viewBox="0 0 443.639 433" xmlns:xlink="http://www.w3.org/1999/xlink"><path fill="none" stroke="#fff" stroke-width="3.1916474820143885" d="M1.596 1.596h440.447v429.809H1.596z"/><g xmlns:default="http://www.w3.org/2000/svg" fill="#fff"><path d="M187.243 40.959V71.28l-20.958 0.213 -20.852 0.319 34.363 37.449c18.831 20.639 34.683 37.555 35.215 37.555 0.851 0 69.046 -73.94 69.046 -74.897 0 -0.319 -9.362 -0.638 -20.746 -0.638H242.565V10.639h-55.322zM228.735 54.258v30.853h24.576l-18.724 20.214c-10.32 11.064 -19.15 20.214 -19.682 20.214 -0.851 0 -37.236 -38.938 -37.236 -39.896 0 -0.319 5.319 -0.532 11.703 -0.532h11.703V23.405h27.661zm26.597 75.642c-10.32 4.681 -15.32 12.554 -16.384 25.852 -0.426 4.787 -1.17 6.915 -2.979 8.83l-2.553 2.447 -14.15 -3.617 -14.256 -3.724 -27.767 9.575c-15.32 5.319 -28.512 10.107 -29.47 10.532 -1.809 1.064 -25.427 50.534 -25.427 53.301 0 0.957 1.17 4.787 2.553 8.511l2.553 6.809 8.937 0.319c6.383 0.213 9.362 -0.106 10.213 -1.064 0.532 -0.745 6.171 -9.043 12.235 -18.405l11.171 -17.022 9.469 -1.702c5.107 -0.957 9.575 -1.596 9.788 -1.383 0.426 0.426 -1.277 4.894 -11.596 30.746 -5.319 13.299 -8.724 24.15 -12.873 40.959l-5.639 22.873 -13.83 20.214c-7.554 11.064 -16.277 23.831 -19.363 28.299l-5.639 8.086 7.66 11.809 7.554 11.915H164.902v-6.915c0 -4.894 -0.638 -8.192 -2.341 -11.596l-2.234 -4.787 11.064 -10.426c26.597 -25.001 23.618 -21.278 34.044 -42.13l9.575 -18.937 6.064 5.319c3.298 2.979 9.043 8.086 12.767 11.49l6.702 6.171 -2.66 30.321c-1.489 16.703 -2.979 32.874 -3.298 35.959l-0.638 5.532H289.376v-16.916l-8.511 -5.958c-4.681 -3.298 -8.617 -6.277 -8.83 -6.702s2.341 -12.235 5.745 -26.278 6.171 -27.023 6.277 -28.831c0 -4.043 -0.426 -4.575 -20.32 -27.129l-15.639 -17.66 5.319 -8.298 5.319 -8.298 4.362 5.213c2.447 2.872 7.128 8.086 10.426 11.596 5.213 5.319 6.596 6.277 9.681 6.171 2.021 0 14.682 -4.575 28.193 -10l24.682 -9.788 1.596 -7.022c0.957 -3.83 1.915 -7.979 2.341 -9.256 0.426 -1.702 -0.638 -2.979 -5.745 -6.596 -3.511 -2.447 -7.128 -4.468 -8.086 -4.468 -0.851 0 -7.873 1.702 -15.426 3.724s-14.15 3.724 -14.788 3.724 -4.681 -5.851 -9.149 -13.086c-4.362 -7.234 -9.256 -14.256 -10.745 -15.639s-2.66 -2.872 -2.66 -3.192c0 -0.426 1.809 -2.021 4.043 -3.404 9.575 -6.383 16.49 -28.725 12.873 -41.598 -3.617 -12.979 -21.703 -20.533 -35.002 -14.469m17.022 11.064c7.766 4.043 9.256 10.958 5.107 23.405 -2.447 7.554 -6.809 13.299 -10.107 13.299 -2.128 0 -5.851 -2.447 -12.447 -8.298l-4.043 -3.511 0.319 -8.937c0.319 -6.915 0.851 -9.362 2.553 -11.171 5.426 -6.064 12.554 -7.979 18.618 -4.787m-23.405 45.428c0.745 6.915 1.702 12.554 2.021 12.554s1.809 -1.277 3.404 -2.766c3.511 -3.298 5.532 -2.872 10.426 2.128l3.404 3.511 -15.001 23.299c-8.298 12.767 -16.384 24.895 -17.873 26.916 -2.447 3.298 -18.192 14.362 -19.15 13.511 -0.426 -0.426 0.745 -4.681 7.66 -27.555l3.724 -12.554 -8.511 -25.533c-4.681 -14.043 -8.405 -25.746 -8.192 -25.959s6.277 1.064 13.511 2.872l13.086 3.298 4.362 -4.362c2.979 -2.979 4.575 -4.043 5.107 -3.085 0.319 0.638 1.277 6.915 2.021 13.724m-42.13 -5.958c1.489 4.043 2.341 7.66 1.915 7.979 -0.426 0.426 -5.319 1.702 -10.852 2.979 -11.596 2.553 -25.852 5.851 -29.789 6.915 -2.341 0.638 -3.192 0.106 -6.171 -4.256 -1.915 -2.66 -3.298 -5.107 -2.979 -5.426 0.638 -0.745 44.683 -16.171 45.109 -15.852 0.106 0.213 1.383 3.617 2.766 7.66m-49.258 17.129 3.404 5 -2.447 4.256c-1.383 2.447 -5.958 10 -10.32 16.809 -6.596 10.426 -8.405 12.554 -10.532 12.554 -3.83 0 -3.298 -2.447 3.617 -17.235 3.404 -7.128 7.554 -16.065 9.256 -19.788 1.596 -3.617 3.085 -6.596 3.298 -6.596s1.915 2.234 3.724 5m123.198 22.98c3.511 5.745 6.49 11.277 6.383 12.235 0 0.957 -0.638 3.511 -1.383 5.532l-1.383 3.724 -5.851 -9.043c-8.298 -12.873 -8.192 -12.66 -7.234 -18.086 0.532 -2.66 0.957 -5.213 1.064 -5.851 0 -1.596 1.383 0.213 8.405 11.49m45.853 7.873c0 3.404 -1.383 4.256 -14.894 9.681 -19.788 8.086 -22.342 8.937 -22.342 7.234 0 -2.234 2.234 -8.511 3.617 -9.894 1.277 -1.489 26.172 -8.511 30.746 -8.724 2.128 -0.106 2.872 0.426 2.872 1.702m-126.07 26.065c5.319 6.49 10 12.66 10.426 13.618 0.638 1.17 -2.766 8.83 -11.596 26.172 -6.809 13.405 -12.554 24.469 -12.554 24.576 -0.106 0.106 -2.234 -0.426 -4.787 -1.064 -3.511 -0.957 -5.532 -2.447 -8.298 -5.958 -1.915 -2.553 -3.298 -5.426 -3.085 -6.383 0.319 -0.957 2.979 -11.49 5.958 -23.512 4.894 -19.469 11.915 -39.47 13.724 -39.364 0.319 0.106 5 5.426 10.213 11.915m52.769 23.831c9.043 10.213 16.49 19.043 16.703 19.575 0.426 1.277 -9.256 4.787 -10.32 3.617 -0.426 -0.532 -7.66 -8.511 -15.852 -17.66 -8.298 -9.256 -15.107 -17.129 -15.107 -17.554 0 -0.957 6.49 -6.596 7.554 -6.702 0.319 0 7.979 8.405 17.022 18.724m17.554 27.767c-0.319 1.064 -3.192 13.192 -6.49 26.916 -4.149 17.448 -6.596 25.64 -7.979 27.023 -1.17 1.17 -2.234 1.915 -2.447 1.596 -0.213 -0.213 1.596 -12.341 3.936 -26.81l4.362 -26.491 3.724 -2.021c4.681 -2.447 5.639 -2.447 4.894 -0.213M172.349 319.59c0 0.532 -3.192 4.362 -7.234 8.511 -3.936 4.149 -11.915 12.554 -17.66 18.724 -5.851 6.171 -10.213 10.426 -9.681 9.575s7.341 -11.064 15.32 -22.661l14.362 -20.958 2.447 2.872c1.277 1.702 2.341 3.404 2.447 3.936m96.707 47.662 5.958 4.575 -11.064 0.319c-6.064 0.106 -11.277 0 -11.596 -0.213 -0.638 -0.745 8.405 -9.043 9.788 -9.149 0.532 0 3.617 2.021 6.915 4.468"/><path d="m312.569 309.377 -16.809 0.319V323.42h29.257l13.724 40.747c7.554 22.342 13.937 41.279 14.256 41.917 0.319 1.064 -27.555 1.383 -137.454 1.383 -130.645 0 -137.879 -0.106 -137.773 -1.915 0 -0.957 6.171 -19.788 13.618 -41.704l13.618 -39.896 13.724 -0.532 13.724 -0.532 0.319 -6.702 0.319 -6.596h-17.873c-9.788 0 -18.405 0.426 -19.15 0.851 -1.596 1.064 -1.489 0.532 -17.554 47.556 -18.192 53.088 -17.448 50.215 -15.426 55.109 0.957 2.128 3.192 4.787 5.213 6.064l3.511 2.128 -23.937 0.319c-13.192 0.106 62.45 0.213 168.093 0.213 105.644 0.106 180.754 -0.213 167.03 -0.532s-24.044 -0.851 -22.767 -1.383c3.511 -1.277 6.809 -5.426 7.554 -9.469 0.426 -2.979 -0.957 -8.298 -6.383 -23.831 -3.83 -11.064 -11.064 -32.342 -16.171 -47.236s-9.681 -27.661 -10.213 -28.299c-1.489 -1.809 -4.149 -2.021 -22.448 -1.702"/></g></svg>
