<?xml version="1.0" encoding="UTF-8" standalone="no"?><!DOCTYPE svg PUBLIC "-//W3C//DTD SVG 1.1//EN" "http://www.w3.org/Graphics/SVG/1.1/DTD/svg11.dtd"><svg width="100%" height="100%" viewBox="0 0 2048 2048" version="1.1" xmlns="http://www.w3.org/2000/svg" xmlns:xlink="http://www.w3.org/1999/xlink" xml:space="preserve" xmlns:serif="http://www.serif.com/" style="fill-rule:evenodd;clip-rule:evenodd;stroke-linejoin:round;stroke-miterlimit:2;"><g id="Background"><path d="M1061.967,708.606c22.596,95.564 84.29,151.581 88.317,148.465c1.27,-0.983 0.488,-1.225 -2.177,-10.195c-3.762,-12.661 -11.772,-64.038 -15.219,-72.178c0,-0.001 2.714,-1.197 2.765,-4.459c0.029,-1.844 -0.022,-1.715 -0.843,-15.233c-7.741,-127.429 17.063,-226.078 18.403,-226.977c2.931,-1.966 10.889,10.501 13.658,14.299c55.349,75.92 92.009,145.301 123.269,265.217c3.411,13.084 29.856,114.528 31.947,165.975l0.21,2.186l1.115,1.351l1.975,0.839c-0.044,17.436 -1.518,26.614 0.008,26.695c0.711,0.038 38.708,-29.596 60.71,-88.553c0.581,0.814 2.238,0.212 2.819,1.025c1.797,2.516 7.734,55.989 8.277,60.874c4.141,37.298 2.681,37.323 -4.521,74.12c-44.659,228.158 -70.313,261.423 -172.633,355.69c-127.042,117.043 -188.599,108.472 -207.025,105.907c-20.283,-2.824 -87.018,-12.116 -214.28,-140.041c-91.511,-91.987 -95.662,-142.192 -127.869,-279.886l-1.165,-2.349c63.484,-65.071 94.751,-88.025 89.48,-93.528c-0.887,-0.926 -21.477,-20.763 -37.51,-36.951c9.492,-9.154 66.204,-63.849 99.543,-131.386c7.623,-15.442 6.013,-20.717 12.124,-17.516c1.515,7.063 9.605,44.772 34.582,83.415c9.711,15.025 11.357,13.597 14.165,16.798c4.248,5.745 23.096,32.814 35.545,42.869c1.157,0.935 14.033,11.335 14.837,11.205c6.345,-1.025 1.771,-3.732 0.341,-10.377c-6.828,-31.744 -4.662,-32.059 -5.296,-34.803c-0.213,-0.922 -1.517,-1.329 -1.73,-2.251c10.005,-15.932 -4.372,-18.946 15.545,-126.666c0.647,-3.499 7.423,-40.146 8.512,-43.663c0.402,-1.298 2.593,-1.467 2.995,-2.765c18.757,113.055 83.482,169.38 101.507,174.116c13.353,3.508 0.491,-20.379 -2.376,-46.837c1.311,-8.324 0.917,-14.162 0.834,-15.392c-5.501,-81.498 2.665,-102.726 5.004,-141.905c0.431,-7.211 3.836,-6.759 4.159,-7.135Z" style="fill:#cfd0d0;"/><path d="M431.19,704.116c297.396,292.174 300.513,291.718 299.355,296.828c-0.389,1.718 -226.031,222.168 -245.744,241.428c-53.87,52.631 -53.374,53.093 -58.066,57.658c-7.998,7.781 -4.029,-5.422 -4.243,-139.416c-0.044,-27.494 2.206,-35.581 -6.31,-35.588c-126.768,0.015 -253.536,0.031 -380.305,0.046c-6.083,0.008 -13.7,2.051 -13.704,-5.984c-0.011,-19.239 -0.135,-238.954 0.12,-240.484c0.687,-4.124 2.846,-3.614 122.871,-3.618c274.513,-0.008 274.562,0.143 275.444,-0.58c2.664,-2.185 1.326,-3.087 1.645,-135.609c0.056,-23.407 -0.246,-39.42 -0.153,-39.706c1.415,-4.378 8.307,4.181 9.092,5.025Z" style="fill:#48a948;"/><path d="M1142.818,438.916c2.484,4.742 54.969,48.733 79.302,91.169c11.95,19.229 27.816,33.726 60.811,110.765c65.151,152.122 59.89,313.704 60.887,314.623c4.223,3.891 20.891,-33.863 22.288,-37.026c7.067,-16.007 39.382,-89.204 17.551,-218.021c-0.835,-4.925 -5.497,-20.035 0.66,-15.106c1.718,1.375 20.468,54.1 22.771,84.872c4.236,56.619 -6.177,57.787 4.573,87.163c2.175,5.944 13.073,35.722 19.085,76.78c8.741,59.698 7.391,86.363 7.01,93.885c0.119,0.298 1.492,3.729 1.492,3.729c0.857,-0.008 1.028,-1.742 1.886,-1.749c87.991,-217.61 2.024,-352.776 2.358,-358.087c1.654,-26.276 120.945,143.818 1.771,388.774c-12.337,25.358 -7.276,26.68 -13.211,72.3c-9.991,76.799 -23.265,91.188 -12.846,82.595c1.68,-1.385 20.733,-29.471 22.492,-32.064c203.396,-299.823 58.055,-540.002 49.233,-557.069c-18.443,-35.679 -55.045,-85.925 -66.448,-97.519c-4.617,-3.512 -7.34,-6.488 -7.915,-7.116c0.927,-1.857 1.855,-0.839 2.854,-2.84c0.073,-0.147 0.239,-0.479 -0.437,-2.001c-0.807,-1.819 -6.405,-14.432 -6.208,-24.085c8.646,7.241 8.552,7.035 15.701,15.451l2.375,-0.002c3.65,7.705 4.257,7.18 10.4,13.271c16.905,21.919 54.843,62.863 89.384,146.075c0.974,1.418 1.949,2.835 2.923,4.253c0.155,1.598 1.928,19.836 6.612,18.943c0.436,-0.083 0.398,-0.102 5.369,-1.378c5.613,70.045 33.903,113.896 16.559,242.563c-15.563,115.454 -76.262,211.682 -75.189,216.383c8,35.059 137.514,156.197 79.842,334.549c-15.908,49.196 -24.981,44.322 -28.584,42.386c-10.105,-5.428 -1.424,-13.563 1.297,-81.894c0.1,-2.52 0.672,-3.522 -1.94,-3.523c-8.5,-0.004 5.711,20.904 -27.357,78.336c-24.802,43.076 -44.724,47.587 -54.017,60.638l-1.603,-0.011c-4.926,1.35 -27.532,16.035 -50.213,22.059c-9.464,2.514 -10.007,1.004 -17.756,6.674c-1.667,-1.251 -3.334,-2.502 -5.001,-3.753c5.087,-5.261 30.439,-31.476 44.182,-80.104c14.769,-36.394 11.916,-124.184 -26.001,-187.294c-6.596,-9.62 -33.617,-53.063 -41.377,-53.247c-1.028,-0.024 -2.056,0.09 -3.084,0.066c7.734,-16.78 7.831,-16.702 8.474,-18.172c6.11,3.72 5.121,4.521 9.925,9.938c18.175,-12.595 47.674,-134.46 47.676,-222.892c-2.143,-104.049 -8.045,-117.177 -18.5,-166.344c-4.921,-23.143 -5.758,5.263 -16.77,30.178c-22.002,58.957 -59.999,88.59 -60.71,88.553c-1.526,-0.081 -0.051,-9.259 -0.008,-26.695c4.071,-83.003 -10.514,-259.712 -94.285,-401.846c-33.061,-56.095 -63.683,-88.848 -84.714,-109.595c-6.449,-6.362 -6.906,-0.104 -9.431,8.548c-0.745,2.552 -40.662,117.613 -4.068,299.694c3.447,8.139 11.457,59.516 15.219,72.178c2.665,8.97 3.447,9.212 2.177,10.195c-4.026,3.117 -65.721,-52.9 -88.317,-148.465c-12.127,-48.164 -9.596,-50.396 -10.519,-73.643c-0.904,-22.771 -5.622,7.682 -5.747,8.493c-0.368,2.376 -25.845,102.954 -0.354,210.002c4.163,17.481 5.735,17.656 6.622,19.58c2.867,26.459 15.729,50.346 2.376,46.837c-18.025,-4.736 -82.749,-61.061 -101.507,-174.116c-8.988,-55.105 2.873,-126.025 -8.791,-71.289c-5,23.463 -40.91,99.905 -22.277,224.675c1.489,9.972 1.459,9.827 4.017,19.708c0.213,0.922 1.517,1.329 1.73,2.251c0.634,2.744 -1.532,3.059 5.296,34.803c1.429,6.646 6.004,9.352 -0.341,10.377c-0.804,0.13 -13.68,-10.27 -14.837,-11.205c-12.449,-10.055 -31.296,-37.124 -35.545,-42.869c-4.966,-18.305 -39.973,-66.236 -43.445,-176.921c-0.072,-2.3 2.006,-32.779 -3.943,-17.034c-40.276,106.611 -126.106,197.821 -129.112,205.297c-1.373,3.414 -2.012,7.173 -3.915,10.322c-0.908,1.503 -3.317,1.644 -4.225,3.147c-1.363,-1.24 -11.622,-10.574 -16.566,-16.008c0.533,-0.489 1.618,0.198 2.15,-0.292c0.009,-0.008 8.177,-10.471 9.561,-12.065c128.601,-148.166 150.406,-267.064 166.254,-310.689c7.144,-19.667 21.926,-41.066 23.229,-41.622c6.05,-2.581 1.861,3.006 -3.572,21.821c-47.542,164.641 -5.298,266.909 3.506,288.222c1.454,3.521 15.136,36.642 20.284,43.08c5.566,6.962 2.047,-2.769 0.244,-16.886c-22.635,-177.172 55.675,-285.386 72.235,-313.876c16.149,-27.783 -0.302,8.964 -5.047,40.808c-25.326,169.954 61.839,261.661 62.961,261.161c3.1,-1.381 -0.897,-7.74 -2.488,-14.178c-31.253,-126.474 0.079,-233.878 5.756,-253.339c15.834,-54.277 36.906,-76.839 38.235,-77.053c6.961,-1.123 1.954,3.33 -0.553,13.27c-16.785,66.552 -0.746,153.565 23.288,207.455c20.599,46.188 22.637,49.531 24.924,46.023c0.567,-0.869 -52.734,-185.369 3.058,-342.896c1.824,-5.826 2.042,-5.652 6.142,-15.342c6.375,-1.681 5.658,-3.02 11.769,-5.698Z" style="fill:#45719d;"/><path d="M1722.28,866.431c-0.131,-166.768 0.135,-167.416 1.44,-167.761c1.95,-0.516 24.838,24.108 187.836,183.054c9.55,9.313 118.348,115.406 119.209,116.58c3.769,5.139 -1.284,5.585 -210.034,210.06c-92.951,91.048 -92.002,92.14 -94.853,93.182c-5.587,2.043 -3.565,-9.365 -3.566,-11.119c-0.007,-17.832 0,-159.458 -0.01,-159.625c-0.504,-8.009 -5.714,-4.048 -199.732,-4.91c-7.369,-0.033 -3.771,-3.781 -0.612,-10.557c70.567,-151.329 54.706,-230.845 61.632,-238.08c0.975,-1.018 1.087,-1.435 120.331,-1.413c12.616,0.002 17.851,3.235 18.357,-9.412Z" style="fill:#ed6728;"/><path d="M991.024,186.686c0.111,0.665 0.222,1.33 0.333,1.994c113.262,18.885 110.975,159.258 100.841,124.52c-3.029,-10.382 -23.356,-80.062 -87.727,-102.845c-158.29,-56.025 -271.594,82.197 -272.207,82.723c-6.637,5.688 -1.649,6.567 -1.145,6.431c86.627,-23.291 150.964,30.005 150.899,33.643c-0.082,4.577 -15.342,-3.9 -17.435,-4.742c-178.331,-71.765 -271.29,92.282 -288.901,147.16c-8.697,-0.967 -8.491,-0.949 -17.262,-0.275c-4.035,-2.976 -3.989,-2.988 -4.358,-3.214c-1.148,-0.702 -1.224,-0.101 -2.36,-0.796c1.281,-0.137 3.437,2.319 5.996,-3.013c18.704,-38.972 24.535,-55.061 58.806,-96.627c39.982,-48.493 59.335,-41.493 87.426,-74.314c42.22,-49.331 125.164,-123.067 226.094,-117.594c21.053,1.142 21.076,2.201 26.143,0.237c101.548,-39.37 150.824,-31.482 199.88,30.02c10.326,12.946 111.352,12.553 185.739,76.297c38.076,32.628 38.759,69.932 49.817,79.117c56.924,47.275 54.882,49.731 91.893,113.922c10.131,17.57 50.233,-75.874 153.853,9.906c104.268,86.317 20.202,236.895 53.067,324.806c10.51,28.114 15.258,31.934 8.815,32.071c-50.316,1.064 -50.796,0.717 -54.318,-1.831c-63.547,-45.971 -64.165,-189.99 -78.425,-184.662c-2.073,0.774 -0.904,1.734 -16.876,21.911c-4.003,5.057 -3.215,5.282 -4.07,7.971c-4.972,1.276 -4.934,1.295 -5.369,1.378c-4.684,0.893 -6.457,-17.345 -6.612,-18.943c-0.974,-1.418 -1.949,-2.835 -2.923,-4.253c-34.541,-83.212 -72.479,-124.156 -89.384,-146.075c3.399,-2.777 36.856,-30.119 41.558,-35.82c0.863,-1.047 -0.404,-0.902 -16.647,-3.23c-17.9,-30.211 -17.643,-30.292 -19.249,-32.883c-14.543,-23.461 -57.188,-71.485 -57.761,-59.667c-1.617,33.392 -1.918,33.271 -10.332,65.606c-1.736,6.669 21.248,20.151 33.955,37.273c-0.197,9.652 5.401,22.266 6.208,24.085c0.676,1.522 0.51,1.855 0.437,2.001c-0.999,2.001 -1.927,0.983 -2.854,2.84c-8.152,-9.159 -53.608,-60.23 -117.779,-98.084c-10.404,-6.137 -82.278,-48.535 -149.712,-19.559c-17.623,7.572 5.927,20.682 -6.258,34.743c-6.111,2.678 -5.394,4.017 -11.769,5.698c-0.489,-2.433 -1.043,-67.477 -69.895,-68.352c-42.338,-0.538 -76.706,27.021 -67.589,13.803c6.801,-9.86 32.281,-20.126 35.346,-21.361c2.429,-0.979 3.869,-1.313 1.897,-2.919c-1.015,-0.826 -71.577,-6.997 -148.911,19.733c-167.425,57.87 -257.969,212.213 -280.996,251.954c-23.556,40.655 -20.937,41.791 -39.342,85.085c-0.14,0.33 -0.151,0.296 -2.039,3.991l-0.775,2.186l-0.984,2.186l3.258,2.393c-12.75,23.396 -8.488,24.881 -17.749,50.024c-8.674,-5.601 -8.184,-5.944 -15.51,-12.962l2.123,-2.301c-0.038,-0.24 -1.711,-1.699 -0.734,-4.691c12.084,-37.021 11.325,-38.234 9.533,-41.094c0.612,-0.362 1.349,1.203 1.961,0.841c0.693,-0.41 5.592,-9.847 7.726,-20.585c20.593,-41.545 38.999,-87.715 91.043,-155.106c5.35,-6.507 5.517,-6.174 9.048,-13.57c1.172,-0.834 2.345,-1.668 3.517,-2.501c55.697,-65.335 174.884,-191.383 374.235,-183.647c34.764,1.349 82.548,19.765 99.415,36.747c7.376,7.427 8.609,6.78 18.54,3.237c0.655,-0.234 13.901,-3.295 15.838,-8.435c1.33,-3.53 45.091,-85.159 -25.057,-168.115c-49.749,-58.833 -120.724,-31.441 -143.449,-26.129c-2.157,0.504 -0.354,1.237 -0.475,1.658Z" style="fill:#3e4d74;"/><path d="M748.098,1729.923c3.267,0.256 12.65,10.077 43.045,-34.472c55.11,-80.773 42.284,-188.803 47.133,-190.654c7.315,-2.793 117.663,135.847 240.497,92.035c75.626,-26.975 132.58,-92.46 137.502,-92.096c2.754,0.204 -2.069,58.526 16.321,124.181c15.435,55.107 53.791,101.945 66.977,102.082c3.718,0.039 4.537,3.292 4.557,3.307c-108.258,158.331 -467.609,137.168 -552.59,1.531c-1.211,-1.933 -2.232,-3.981 -3.443,-5.914Z" style="fill:#cfcfcf;"/><path d="M1124.907,459.957c-55.793,157.527 -2.491,342.027 -3.058,342.896c-2.287,3.508 -4.325,0.165 -24.924,-46.023c-24.034,-53.89 -40.073,-140.903 -23.288,-207.455c2.507,-9.94 7.514,-14.393 0.553,-13.27c-1.329,0.214 -22.402,22.776 -38.235,77.053c-5.677,19.461 -37.009,126.865 -5.756,253.339c1.591,6.439 5.588,12.797 2.488,14.178c-1.121,0.5 -88.286,-91.207 -62.961,-261.161c4.745,-31.844 21.197,-68.591 5.047,-40.808c-16.56,28.49 -94.87,136.704 -72.235,313.876c1.804,14.117 5.322,23.848 -0.244,16.886c-5.148,-6.438 -18.829,-39.56 -20.284,-43.08c-8.804,-21.313 -51.048,-123.581 -3.506,-288.222c5.433,-18.815 9.622,-24.402 3.572,-21.821c-1.303,0.556 -16.085,21.955 -23.229,41.622c-15.848,43.625 -37.652,162.524 -166.254,310.689c-1.384,1.594 -9.552,12.057 -9.561,12.065c-0.533,0.489 -1.618,-0.198 -2.15,0.292c-5.115,-4.664 -49.167,-44.827 -61.228,-61.144c24.315,-67.066 23.443,-67.33 36.935,-98.397c1.132,-2.606 -0.616,-5.616 -4.167,-2.155c-23.231,22.648 -41.921,75.676 -44.419,82.763c-0.139,0.394 -0.306,0.237 -4.126,3.197c-54.24,-53.707 -55.747,-52.564 -60.611,-61.938c9.261,-25.143 4.999,-26.628 17.749,-50.024c44.27,-70.685 84.89,-145.392 206.957,-208.473c54.746,-28.291 -27.799,13.582 -81.952,129.943c-19.088,41.015 -25.99,96.542 -18.979,86.271c2.017,-2.955 63.612,-128.969 187.075,-192.636c17.983,-9.273 26.106,-7.572 31.673,-18.814c0.859,-1.734 11.122,-34.078 52.778,-74.529c14.503,-14.083 -10.543,17.437 -21.055,53.102c-0.706,2.397 -12.596,42.74 -2.37,31.147c27.645,-31.339 93.738,-63.474 102.584,-67.775c0.855,-0.416 20.118,-9.782 11.798,-1.396c-6.168,6.216 -42.216,42.548 -46.529,99.082c-0.294,3.848 0.824,21.04 2.231,21.084c4.637,0.145 -0.143,-13.592 40.413,-39.406c64.492,-41.049 88.548,-78.721 94.077,-87.378c2.118,-3.317 2.777,-2.366 5.189,-3.58Z" style="fill:#9ad0f7;"/><path d="M991.024,186.686c0.121,-0.421 -1.682,-1.154 0.475,-1.658c22.725,-5.312 93.699,-32.705 143.449,26.129c70.148,82.956 26.387,164.586 25.057,168.115c-1.937,5.14 -15.183,8.202 -15.838,8.435c-9.93,3.543 -11.163,4.189 -18.54,-3.237c-16.867,-16.982 -64.651,-35.398 -99.415,-36.747c-199.351,-7.736 -318.539,118.312 -374.235,183.647c-1.43,0.393 -2.859,0.785 -4.289,1.178c-36.901,-34.564 -38.21,-42.381 -72.007,-56.977c17.611,-54.878 110.57,-218.925 288.901,-147.16c2.093,0.842 17.353,9.319 17.435,4.742c0.065,-3.638 -64.272,-56.934 -150.899,-33.643c-0.505,0.136 -5.493,-0.743 1.145,-6.431c0.613,-0.526 113.917,-138.747 272.207,-82.723c64.371,22.784 84.699,92.464 87.727,102.845c10.134,34.738 12.421,-105.634 -100.841,-124.52l-0.333,-1.994Z" style="fill:#4674db;"/><path d="M1222.12,530.085c9.799,1.506 7.552,5.427 32.631,26.993c27.03,23.244 79.239,87.596 89.704,108.871c0.206,0.42 4.705,9.567 5.58,1.745c12.98,-116.137 -59.915,-167.031 -52.354,-171.809c5.025,-3.176 110.804,77.177 142.972,150.277c7.859,17.858 6.487,-17.893 6.487,-17.973c0.251,-49.597 -19.452,-87.155 -23.049,-94.012c-0.195,-0.373 0.029,-0.389 0.39,-5.246c11.404,11.593 48.005,61.839 66.448,97.519c8.822,17.067 154.163,257.245 -49.233,557.069c-1.759,2.593 -20.812,30.679 -22.492,32.064c-10.42,8.593 2.855,-5.796 12.846,-82.595c5.935,-45.621 0.874,-46.942 13.211,-72.3c119.174,-244.957 -0.117,-415.051 -1.771,-388.774c-0.334,5.311 85.633,140.476 -2.358,358.087c-1.126,-0.66 -2.252,-1.32 -3.378,-1.979c0.381,-7.522 1.731,-34.188 -7.01,-93.885c-6.012,-41.057 -16.909,-70.836 -19.085,-76.78c-10.75,-29.375 -0.337,-30.544 -4.573,-87.163c-2.302,-30.772 -21.053,-83.496 -22.771,-84.872c-6.156,-4.929 -1.495,10.181 -0.66,15.106c21.831,128.817 -10.484,202.013 -17.551,218.021c-1.396,3.163 -18.064,40.917 -22.288,37.026c-0.997,-0.918 4.264,-162.5 -60.887,-314.623c-32.994,-77.039 -48.861,-91.537 -60.811,-110.765Z" style="fill:#9ad0f7;"/><path d="M1386.104,916.039c11.012,-24.915 11.849,-53.321 16.77,-30.178c10.454,49.168 16.357,62.295 18.5,166.344l-2.768,2.183c-0.386,4.287 -30.532,130.651 -38.147,157.422c-1.223,4.301 -8.535,30.008 -16.686,53.35c-0.643,1.469 -0.741,1.391 -8.474,18.172c-39.926,77.578 -105.446,125.125 -106.817,133.723c-7.947,49.847 -6.57,112.669 -6.355,122.478c11.34,93.774 17.345,119.683 67.953,172.917c5.052,5.315 -2.283,15.15 -5.947,21.857c-0.021,-0.015 -0.84,-3.269 -4.557,-3.307c-13.186,-0.137 -51.542,-46.975 -66.977,-102.082c-18.39,-65.655 -13.567,-123.977 -16.321,-124.181c-4.922,-0.365 -61.876,65.121 -137.502,92.096c-122.834,43.813 -233.182,-94.827 -240.497,-92.035c-4.849,1.851 7.977,109.88 -47.133,190.654c-30.395,44.549 -39.778,34.728 -43.045,34.472c-1.158,-2.589 -7.91,-12.854 -3.616,-17.449c43.725,-46.778 54.454,-65.109 68.173,-168.566c0.57,-4.296 0.111,-4.103 0.177,-6.563c0.147,-9.639 1.296,-84.822 -6.553,-120.324c-1.613,-7.298 -19.12,-17.452 -52.386,-55.37c-21.408,-24.117 -23.447,-31.177 -28.049,-35.486c-47.528,-61.069 -65.845,-178.305 -70.629,-190.91c-0.392,-1.034 -2.117,-1.136 -2.509,-2.17c0.106,-1.056 1.327,-13.197 1.327,-13.197c0.619,-6.119 0.461,-5.983 0.542,-6.498c0.794,-5.085 -1.961,-3.687 -2.492,-4.686c7.022,-7.363 16.184,-15.971 17.625,-17.324l1.165,2.349c32.207,137.693 36.358,187.898 127.869,279.886c127.262,127.925 193.997,137.217 214.28,140.041c18.426,2.566 79.983,11.137 207.025,-105.907c102.32,-94.267 127.974,-127.532 172.633,-355.69c7.203,-36.798 8.663,-36.823 4.521,-74.12c-0.542,-4.885 -6.48,-58.358 -8.277,-60.874c-0.581,-0.814 -2.238,-0.212 -2.819,-1.025Z" style="fill:#9c9c9c;"/><path d="M1131.049,444.615c-4.1,9.69 -4.318,9.517 -6.142,15.342c-2.411,1.214 -3.071,0.263 -5.189,3.58c-5.528,8.657 -29.584,46.329 -94.077,87.378c-40.556,25.814 -35.776,39.55 -40.413,39.406c-1.407,-0.044 -2.525,-17.236 -2.231,-21.084c4.314,-56.535 40.362,-92.866 46.529,-99.082c8.32,-8.386 -10.943,0.98 -11.798,1.396c-8.846,4.301 -74.939,36.436 -102.584,67.775c-10.226,11.593 1.664,-28.75 2.37,-31.147c10.511,-35.666 35.558,-67.185 21.055,-53.102c-41.656,40.45 -51.919,72.794 -52.778,74.529c-5.567,11.243 -13.69,9.541 -31.673,18.814c-123.462,63.667 -185.058,189.681 -187.075,192.636c-7.011,10.271 -0.109,-45.256 18.979,-86.271c54.154,-116.361 136.698,-158.234 81.952,-129.943c-122.067,63.081 -162.686,137.788 -206.957,208.473l-3.258,-2.393l0.984,-2.186l0.775,-2.186c1.888,-3.696 1.899,-3.661 2.039,-3.991c18.405,-43.294 15.786,-44.431 39.342,-85.085c23.027,-39.741 113.571,-194.084 280.996,-251.954c77.334,-26.73 147.896,-20.56 148.911,-19.733c1.972,1.606 0.532,1.94 -1.897,2.919c-3.065,1.235 -28.545,11.501 -35.346,21.361c-9.117,13.218 25.251,-14.341 67.589,-13.803c68.852,0.875 69.406,65.919 69.895,68.352Z" style="fill:#4673da;"/><path d="M551.701,471.285c1.136,0.695 1.212,0.094 2.36,0.796c0.37,0.226 0.323,0.238 4.358,3.214c1.096,1.363 4.212,5.235 16.697,14.108c27.919,19.84 55.928,53.005 64.296,58.038c-52.044,67.391 -70.449,113.56 -91.043,155.106c-2.135,10.737 -7.033,20.175 -7.726,20.585c-0.612,0.362 -1.349,-1.203 -1.961,-0.841c-6.481,-8.602 -26.601,-33.504 -34.555,-44.299c-11.784,-14.372 -10.866,-14.789 -11.923,-15.984c-1.426,-1.613 -1.678,-0.446 -3.279,-0.872c-1.472,-7.969 -4.351,-2.543 -4.483,-2.167c-14.758,41.915 -10.541,58.589 -20.408,48.372c-37.642,-38.979 -40.2,-36.252 -77.289,-75.753c-0.425,-0.453 -6.639,-7.071 -7.056,-3.231c-1.829,16.849 1.556,16.744 0.127,211.847c-0.032,4.331 -1.024,6.85 -24.498,5.791c-13.206,-0.596 20.953,-22.762 17.09,-95.385c-4.569,-85.904 -46.283,-231.046 90.288,-289.752c45.513,-19.564 70.929,-0.668 89.005,10.428Z" style="fill:#565656;"/><path d="M1355.298,1283.331c1.028,0.024 2.056,-0.09 3.084,-0.066c7.76,0.184 34.781,43.627 41.377,53.247c-3.204,2.013 -3.432,1.843 -3.452,2.169c-3.631,61.548 3.869,102.584 5.472,111.358c2.967,16.232 15.872,68.374 23.981,73.768c-13.743,48.627 -39.094,74.843 -44.182,80.104c-27.94,-21.07 -52.078,-53.767 -61.754,-78.157c-12.414,-31.29 0.169,18.995 0.569,20.594c14.338,57.298 41.562,76.541 31.531,74.662c-60.352,-11.307 -98.388,-61.455 -104.364,-75.437c-1.991,-4.658 -3.147,-3.499 -5.433,-6.041c-0.215,-9.809 -1.592,-72.631 6.355,-122.478c1.371,-8.598 66.89,-56.145 106.817,-133.723Z" style="fill:#2d51b2;"/><path d="M560.606,1198.57c2.568,4.84 27.314,62.852 70.769,124.194c-0.674,1.075 -2.113,1.517 -2.787,2.592c-6.784,10.814 17.638,19.113 -9.784,123.755c-60.03,150.35 -216.505,117.008 -219.692,112.15c-2.319,-3.535 9.619,-4.949 10.467,-5.202c88.927,-26.583 129.062,-121.36 128.626,-158.033c-0.55,-0.201 -1.1,-0.402 -1.649,-0.603c-14.82,31.528 -20.511,38.44 -30.544,48.198c-46.27,53.987 -112.816,42.061 -120.016,41.083c-17.598,-2.389 30.391,-3.522 80.357,-56.686c70.585,-75.103 61.774,-176.072 60.373,-192.121c-0.544,-6.236 0.904,-8.018 33.88,-39.327Z" style="fill:#9acff8;"/><path d="M1142.818,438.916c12.185,-14.062 -11.365,-27.171 6.258,-34.743c67.434,-28.976 139.308,13.422 149.712,19.559c64.171,37.854 109.627,88.925 117.779,98.084c0.575,0.628 3.298,3.604 7.915,7.116c-0.361,4.857 -0.586,4.873 -0.39,5.246c3.597,6.857 23.3,44.415 23.049,94.012c-0,0.08 1.371,35.832 -6.487,17.973c-32.168,-73.1 -137.946,-153.453 -142.972,-150.277c-7.561,4.779 65.333,55.672 52.354,171.809c-0.874,7.822 -5.373,-1.325 -5.58,-1.745c-10.464,-21.275 -62.673,-85.627 -89.704,-108.871c-25.08,-21.567 -22.832,-25.487 -32.631,-26.993c-24.333,-42.436 -76.818,-86.427 -79.302,-91.169Z" style="fill:#4673da;"/><path d="M1437.475,1220.629c4.27,-7.879 23.162,-32.264 31.789,-46.406c8.049,-13.195 9.881,-1.493 12.057,2.215c10.818,18.432 29.65,46.226 37.734,60.022c75.6,129.017 30.644,255.321 35.399,216.063c0.388,-3.202 0.01,-35.939 -9.912,-66.06c-19.609,-59.529 -22.003,-83.316 -42.462,-101.785c-8.047,-7.264 1.791,11.719 6.234,25.692c50.597,159.135 -41.376,245.79 -79.91,262.513c-7.433,3.226 1.217,-9.535 1.292,-9.681c27.834,-54.258 22.169,-121.889 22.203,-126.338c0.414,-0.62 -0.943,-1.553 -0.529,-2.173c0.75,-1.125 2.477,-1.209 3.427,-2.172c0.607,-0.615 0.765,-1.554 1.053,-2.369c11.574,-32.763 11.118,-78.202 11.049,-85.064c-0.541,-53.923 -23.594,-115.077 -29.424,-124.456Z" style="fill:#9ad0f8;"/><path d="M725.843,1326.164c4.602,4.309 6.642,11.369 28.049,35.486c-2.528,4.933 -2.797,4.848 -2.727,5.321c6.238,42.225 8.328,70.298 -10.26,140.253c-2.411,4.839 -2.61,5.802 -2.722,6.343c-9.907,47.94 -48.709,111.927 -99.492,147.48c-84.919,59.453 -184.638,24.83 -188.432,15.835c-6.409,-15.196 19.82,-10.632 53.706,-23.241c93.943,-34.955 102.988,-139.305 101.418,-141.23c-2.893,-3.548 -4.589,2.469 -8.39,6.788c-95.346,108.347 -235.822,53.208 -241.407,42.073c-13.612,-27.142 73.421,5.358 138.259,-90.971c11.226,-16.679 16.215,-16.177 12.166,-24.681c10.032,-9.758 15.724,-16.67 30.544,-48.198l1.649,0.603c0.436,36.674 -39.699,131.45 -128.626,158.033c-0.847,0.253 -12.786,1.667 -10.467,5.202c3.187,4.857 159.662,38.2 219.692,-112.15c0.414,1.357 2.438,1.803 2.852,3.16c0.97,3.178 -1.283,3.35 2.508,41.455c-1.586,20.001 -2,83.314 -51.032,134.888c-30.586,32.172 -67.521,43.181 -67.817,43.24c-21.594,4.282 28.561,9.846 64.112,1.233c80.068,-19.4 118.632,-90.756 123.351,-97.987c3.493,-5.494 20.074,-31.575 32.291,-74.697c30.474,-107.56 0.715,-161.053 0.773,-174.238Z" style="fill:#426e9b;"/><path d="M1185.57,237.743c9.633,2.162 229.272,38.055 175.132,191.61c-2.908,8.249 -2.401,14.492 -9.067,8.919c-16.699,-13.959 -83.193,-61.613 -144.052,-61.94c-12.442,-0.067 -13.887,2.037 -15.152,-1.705c-1.015,-3.004 16.501,-55.433 -14.18,-126.322c-4.23,-9.773 -7.789,-11.843 -3.219,-12.553c0.848,-0.132 0.777,0.147 10.538,1.991Z" style="fill:#4673db;"/><path d="M652.705,1133.084c0.392,1.034 2.117,1.136 2.509,2.17c4.784,12.605 23.101,129.841 70.629,190.91c-0.058,13.185 29.701,66.678 -0.773,174.238c-12.217,43.121 -28.799,69.203 -32.291,74.697c-0.72,-1.177 -2.411,-1.531 -3.131,-2.708c-0.368,-0.601 1.536,-8.177 1.712,-8.879c22.008,-87.583 4.881,-123.505 -10.82,-187.679c-0.619,-0.307 -1.238,-0.614 -1.857,-0.921c-0.29,0.14 -1.577,-1.849 -1.897,0.914c-0.949,8.202 -3.574,55.059 -44.936,110.553c-1.029,1.38 -1.085,1.252 -7.684,7.347c-3.791,-38.106 -1.538,-38.278 -2.508,-41.455c-0.414,-1.357 -2.438,-1.803 -2.852,-3.16c27.422,-104.642 2.999,-112.941 9.784,-123.755c0.674,-1.075 2.113,-1.517 2.787,-2.592c7.828,7.776 37.387,47.028 29.626,22.354c-16.631,-52.871 -16.416,-150.692 -8.296,-212.034Z" style="fill:#77a8cc;"/><path d="M678.683,1374.912l1.857,0.921c15.701,64.174 32.828,100.097 10.82,187.679c-0.176,0.702 -2.08,8.277 -1.712,8.879c0.72,1.177 2.411,1.531 3.131,2.708c-4.718,7.23 -43.283,78.587 -123.351,97.987c-35.551,8.614 -85.706,3.05 -64.112,-1.233c0.296,-0.059 37.23,-11.068 67.817,-43.24c49.032,-51.574 49.446,-114.887 51.032,-134.888c6.599,-6.095 6.655,-5.966 7.684,-7.347c41.362,-55.494 43.987,-102.351 44.936,-110.553c0.32,-2.763 1.607,-0.775 1.897,-0.914Z" style="fill:#9acff9;"/><path d="M1132.888,774.698c-36.594,-182.081 3.323,-297.142 4.068,-299.694c2.526,-8.653 2.982,-14.91 9.431,-8.548c21.031,20.747 51.653,53.501 84.714,109.595c83.771,142.134 98.356,318.843 94.285,401.846l-1.975,-0.839l-1.115,-1.351l-0.21,-2.186c-2.091,-51.446 -28.536,-152.89 -31.947,-165.975c-31.26,-119.917 -67.92,-189.298 -123.269,-265.217c-2.769,-3.798 -10.727,-16.266 -13.658,-14.299c-1.34,0.899 -26.144,99.547 -18.403,226.977c0.821,13.518 0.872,13.388 0.843,15.233c-0.051,3.262 -2.765,4.458 -2.765,4.459Z" style="fill:#9d9e9f;"/><path d="M753.893,1361.65c33.266,37.918 50.773,48.072 52.386,55.37c7.849,35.502 6.7,110.685 6.553,120.324c-4.253,5.011 -3.952,5.103 -6.021,10.438c-15.538,40.061 -71.96,77.195 -97.611,84.83c-6.253,1.861 2.502,-7.151 12.568,-32.066c16.235,-40.183 20.926,-88.164 20.568,-91.584c-0.078,-0.746 -1.352,-0.992 -1.43,-1.738c18.587,-69.956 16.498,-98.028 10.26,-140.253c-0.07,-0.473 0.199,-0.388 2.727,-5.321Z" style="fill:#2e51b2;"/><path d="M833.343,811.998c-6.111,-3.202 -4.501,2.074 -12.124,17.516c-33.338,67.536 -90.051,122.231 -99.543,131.386c-1.963,-1.884 -14.164,-13.595 -24.227,-23.879c0.908,-1.503 3.317,-1.644 4.225,-3.147c1.903,-3.149 2.542,-6.908 3.915,-10.322c3.006,-7.476 88.836,-98.686 129.112,-205.297c5.948,-15.745 3.87,14.734 3.943,17.034c3.473,110.685 38.48,158.616 43.445,176.921c-2.808,-3.201 -4.454,-1.773 -14.165,-16.798c-24.977,-38.643 -33.067,-76.352 -34.582,-83.415Z" style="fill:#9d9d9e;"/><path d="M1437.475,1220.629c5.83,9.38 28.882,70.533 29.424,124.456c0.069,6.862 0.525,52.301 -11.049,85.064c-0.288,0.815 -0.446,1.754 -1.053,2.369c-0.95,0.963 -2.677,1.047 -3.427,2.172c-0.414,0.62 0.943,1.553 0.529,2.173c-12.073,-47.251 -11.525,-85.963 -72.971,-155.659c3.325,-3.707 2.581,-4.267 6.459,-7.201c29.589,-22.385 35.612,-35.62 52.088,-53.375Z" style="fill:#76a8cc;"/><path d="M652.082,1108.703c0.531,0.999 3.285,-0.4 2.492,4.686c-0.08,0.515 0.077,0.38 -0.542,6.498c0,0 -1.221,12.141 -1.327,13.197c-8.12,61.342 -8.335,159.163 8.296,212.034c7.761,24.674 -21.798,-14.578 -29.626,-22.354c-43.456,-61.342 -68.201,-119.354 -70.769,-124.194c8.447,-9.246 11.246,-10.456 12.315,-11.226c0.034,0.033 3.355,1.115 4.964,4.837c3.893,9.003 28.981,67.018 59.001,107.483c5.22,7.037 2.099,-6.421 1.968,-6.987c-3.512,-15.141 -11.267,-84.648 -5.008,-152.965c0.271,-2.963 1.562,-5.903 1.161,-8.852c-0.183,-1.347 -2.588,-1.646 -2.771,-2.993c18.299,-17.689 18.26,-17.628 19.845,-19.163Z" style="fill:#46719f;"/><path d="M1466.162,482.56c-3.199,1.414 -16.725,7.39 -35.311,25.778l-2.375,0.002c-7.149,-8.417 -7.054,-8.21 -15.701,-15.451c-12.707,-17.122 -35.691,-30.604 -33.955,-37.273c8.414,-32.335 8.715,-32.214 10.332,-65.606c0.572,-11.818 43.217,36.206 57.761,59.667c1.606,2.591 1.349,2.672 19.249,32.883Z" style="fill:#4674da;"/><path d="M632.237,1127.867c0.183,1.347 2.588,1.646 2.771,2.993c0.401,2.949 -0.89,5.888 -1.161,8.852c-6.259,68.316 1.496,137.823 5.008,152.965c0.131,0.566 3.252,14.024 -1.968,6.987c-30.019,-40.464 -55.107,-98.479 -59.001,-107.483c-1.609,-3.722 -4.93,-4.803 -4.964,-4.837c7.801,-10.093 42.811,-42.449 59.315,-59.477Z" style="fill:#9acff8;"/><path d="M1399.758,1336.513c37.917,63.111 40.771,150.901 26.001,187.294c-8.109,-5.394 -21.014,-57.536 -23.981,-73.768c-1.604,-8.774 -9.103,-49.81 -5.472,-111.358c0.019,-0.326 0.248,-0.156 3.452,-2.169Z" style="fill:#010104;"/><path d="M952.84,745.759c-0.402,1.298 -2.593,1.467 -2.995,2.765c-1.089,3.517 -7.865,40.164 -8.512,43.663c-19.917,107.72 -5.539,110.734 -15.545,126.666c-2.558,-9.881 -2.528,-9.736 -4.017,-19.708c-18.633,-124.771 17.277,-201.213 22.277,-224.675c11.665,-54.736 -0.197,16.185 8.791,71.289Z" style="fill:#9c9e9f;"/><path d="M1456.15,1578.942c6.897,15.686 46.293,54.66 58.48,62.595c11.178,7.279 -16.12,4.121 -16.312,4.111c-63.382,-3.465 -100.356,-30.174 -111.74,-37.984c7.749,-5.67 8.292,-4.161 17.756,-6.674c22.681,-6.024 45.287,-20.709 50.213,-22.059l1.603,0.011Z" style="fill:#2e51af;"/><path d="M1061.967,708.606c-0.323,0.376 -3.728,-0.076 -4.159,7.135c-2.34,39.178 -10.505,60.406 -5.004,141.905c0.083,1.23 0.477,7.068 -0.834,15.392c-0.887,-1.924 -2.46,-2.099 -6.622,-19.58c-25.491,-107.049 -0.015,-207.626 0.354,-210.002c0.126,-0.811 4.843,-31.263 5.747,-8.493c0.923,23.247 -1.609,25.479 10.519,73.643Z" style="fill:#9ea0a2;"/><path d="M1421.374,1052.205c-0.003,88.432 -29.501,210.297 -47.676,222.892c-4.804,-5.416 -3.815,-6.218 -9.925,-9.938c8.151,-23.342 15.463,-49.048 16.686,-53.35c7.615,-26.772 37.761,-153.136 38.147,-157.422l2.768,-2.183Z" style="fill:#78a9cb;"/><path d="M504.127,677.992c7.954,10.795 28.074,35.697 34.555,44.299c1.792,2.86 2.551,4.073 -9.533,41.094c-0.977,2.992 0.697,4.451 0.734,4.691l-2.123,2.301c-7.157,-7.657 -24.516,-23.997 -33.82,-33.848c7.281,-10.643 -0.493,-23.455 10.188,-58.537Z" style="fill:#4672d9;"/><path d="M558.419,475.296c8.772,-0.674 8.566,-0.692 17.262,0.275c33.797,14.596 35.106,22.413 72.007,56.977l0.772,1.324c-3.532,7.396 -3.699,7.063 -9.048,13.57c-8.367,-5.032 -36.376,-38.198 -64.296,-58.038c-12.485,-8.872 -15.601,-12.745 -16.697,-14.108Z" style="fill:#3d3e40;"/><path d="M603.881,845.276c3.82,-2.96 3.987,-2.803 4.126,-3.197c2.498,-7.087 21.188,-60.115 44.419,-82.763c3.55,-3.461 5.298,-0.451 4.167,2.155c-13.492,31.067 -12.62,31.331 -36.935,98.397c-9.053,-6.424 -10.845,-9.954 -15.776,-14.592Z" style="fill:#46729d;"/><path d="M488.925,661.135c1.601,0.426 1.854,-0.741 3.279,0.872c1.056,1.195 0.138,1.613 11.923,15.984c-10.68,35.082 -2.906,47.895 -10.188,58.537c-1.454,-1.251 -14.298,-11.677 -14.023,-16.537c1.322,-23.37 8,-54.202 9.009,-58.857Z" style="fill:#2d4b9c;"/><path d="M1466.162,482.56c16.243,2.327 17.51,2.183 16.647,3.23c-4.702,5.701 -38.159,33.043 -41.558,35.82c-6.143,-6.091 -6.75,-5.567 -10.4,-13.271c18.586,-18.388 32.112,-24.365 35.311,-25.778Z" style="fill:#3d3e41;"/><path d="M1437.756,1028.02c1.126,0.66 2.252,1.32 3.378,1.979c-0.857,0.008 -1.028,1.742 -1.886,1.749c0,0 -1.373,-3.43 -1.492,-3.729Z" style="fill:#709eca;"/><path d="M647.689,532.547c1.43,-0.393 2.859,-0.785 4.289,-1.178c-1.172,0.834 -2.345,1.668 -3.517,2.501l-0.772,-1.324Z" style="fill:#415fa9;"/></g></svg>