<?xml version="1.0" standalone="no"?>
<!DOCTYPE svg PUBLIC "-//W3C//DTD SVG 20010904//EN" "http://www.w3.org/TR/2001/REC-SVG-20010904/DTD/svg10.dtd">
<svg version="1.0" xmlns="http://www.w3.org/2000/svg" width="600.000000pt" height="600.000000pt" viewBox="0 0 600.000000 600.000000" preserveAspectRatio="xMidYMid meet">
<g transform="translate(0.000000,600.000000) scale(0.066667,-0.066667)" fill="#45a4e9" stroke="none">
<path d="M4529 8462 c-75 -16 -143 -62 -233 -155 -137 -142 -141 -155 -141 -419 l0 -231 54 -82 c29 -46 73 -103 97 -128 70 -73 58 -107 -49 -141 -76 -25 -257 -196 -320 -303 l-52 -90 0 -435 0 -436 49 -92 c27 -51 92 -138 146 -195 109 -116 107 -132 -20 -153 -176 -29 -393 -208 -490 -404 l-52 -105 0 -683 c0 -675 0 -683 34 -767 100 -248 316 -446 516 -472 113 -15 110 -36 -24 -180 -38 -41 -89 -113 -114 -162 l-45 -89 0 -431 0 -431 60 -105 c93 -161 237 -281 371 -310 68 -15 63 -46 -24 -144 -126 -141 -137 -176 -137 -420 0 -281 88 -450 293 -559 78 -43 370 -47 460 -7 212 94 297 254 297 560 0 269 -6 287 -134 439 -72 86 -77 119 -20 131 148 30 298 161 388 340 l51 101 0 405 c0 502 -6 524 -224 764 -25 28 -46 57 -46 63 0 13 95 44 132 44 159 1 425 294 491 541 34 126 32 1251 -2 1365 -77 258 -302 479 -526 516 -127 21 -128 36 -16 158 59 63 119 147 146 204 l45 96 0 414 0 415 -47 96 c-57 115 -237 293 -325 321 -121 39 -127 59 -43 161 123 150 130 172 130 425 0 263 -7 285 -126 414 -134 144 -337 202 -550 156z m408 -312 c29 -34 30 -474 1 -503 -14 -14 -86 -21 -250 -24 l-231 -5 -25 48 c-26 51 -28 450 -2 490 20 32 480 26 507 -6z m186 -1149 c107 -61 112 -85 112 -532 0 -563 27 -534 -516 -541 -413 -6 -458 1 -527 73 l-44 46 0 423 c0 593 -29 564 540 564 361 0 377 -1 435 -33z m317 -1741 c34 -23 82 -70 105 -104 l43 -61 4 -680 c4 -753 9 -716 -96 -821 -103 -103 -107 -104 -533 -111 -212 -4 -519 -2 -682 4 l-296 11 -80 75 c-133 127 -133 124 -128 851 4 562 7 627 31 682 31 69 134 169 185 181 19 4 48 10 65 14 16 4 320 5 675 4 l645 -2 62 -43z m-271 -2446 l59 -51 4 -430 4 -430 -59 -59 -58 -59 -430 0 -429 0 -56 51 -56 52 0 429 0 430 63 59 63 59 418 0 418 0 59 -51z m-234 -1659 c18 -29 35 -379 23 -446 -15 -78 -16 -79 -280 -79 l-234 0 -19 67 c-19 70 -15 396 7 446 13 31 50 35 298 33 141 -1 197 -7 205 -21z"/>
<path d="M2187 5230 c-180 -50 -417 -324 -417 -481 0 -89 -58 -75 -163 38 -153 165 -198 186 -414 186 -209 0 -227 -7 -366 -136 -144 -133 -167 -195 -167 -445 0 -190 3 -214 36 -279 194 -383 659 -432 928 -99 74 91 131 122 131 71 0 -189 266 -505 459 -545 157 -33 734 -14 825 27 94 43 239 189 304 307 l47 86 0 433 0 434 -41 80 c-53 103 -211 261 -301 303 -89 40 -734 55 -861 20z m844 -300 c12 -6 41 -39 63 -73 l41 -63 0 -396 c0 -569 36 -534 -547 -540 l-420 -5 -60 62 -60 61 -5 386 c-6 432 0 472 82 543 l54 47 414 -5 c228 -3 425 -11 438 -17z m-1625 -259 c22 -6 39 -28 50 -64 23 -76 13 -429 -13 -455 -28 -28 -473 -28 -501 0 -40 40 -27 465 16 499 36 30 359 43 448 20z"/>
<path d="M6357 5230 c-39 -11 -83 -29 -97 -41 -127 -97 -184 -155 -240 -241 l-65 -101 0 -442 0 -442 53 -95 c159 -283 266 -334 716 -340 500 -7 642 53 776 329 18 36 40 79 50 96 12 20 19 157 22 419 l5 390 -40 103 c-49 124 -175 267 -295 333 l-79 45 -368 3 c-265 2 -387 -2 -438 -16z m876 -326 c67 -63 71 -97 72 -517 2 -561 30 -536 -566 -529 -551 6 -529 -14 -529 496 0 428 5 465 76 539 l56 59 425 -5 426 -4 40 -39z"/>
<path d="M8033 4967 c-102 -27 -237 -131 -312 -240 -26 -38 -56 -78 -67 -89 -14 -15 -19 -80 -19 -238 l0 -218 79 -113 c143 -207 249 -266 476 -266 224 0 369 91 477 300 66 128 69 438 4 569 -115 233 -390 361 -638 295z m368 -310 c56 -29 59 -43 59 -276 0 -264 17 -248 -272 -248 -278 0 -272 -5 -280 194 -10 215 5 303 54 329 56 30 383 30 439 1z"/>
</g>
</svg>
